<svg width="101" height="41" viewBox="0 0 101 41" fill="none" xmlns="http://www.w3.org/2000/svg">
<g clip-path="url(#clip0_141_50)">
<path d="M32.2168 12.2197C32.6977 12.2766 33.1403 12.5028 33.462 12.8558C33.7838 13.2089 33.9626 13.6644 33.9642 14.1366V35.2147C33.97 35.469 33.9201 35.7216 33.818 35.9556C33.7158 36.1896 33.5634 36.3997 33.3714 36.5718C33.065 36.8832 32.6573 37.0808 32.2178 37.1308V40.7446C32.2178 40.8121 32.1905 40.8768 32.1418 40.9247C32.093 40.9725 32.0266 40.9997 31.9575 41.0003V41.0003C31.8879 41.0001 31.8215 40.9731 31.7722 40.9253C31.7229 40.8774 31.6946 40.8124 31.6942 40.7446V37.1308C31.2552 37.0802 30.848 36.8826 30.5416 36.5718C30.3495 36.3998 30.1971 36.1898 30.095 35.9557C29.9929 35.7217 29.9436 35.469 29.9497 35.2147V14.1366C29.9509 13.6647 30.1287 13.2095 30.45 12.8564C30.7712 12.5034 31.2138 12.277 31.6942 12.2197V5.66985C31.6946 5.60211 31.7229 5.53728 31.7722 5.48956C31.8215 5.44184 31.888 5.41515 31.9575 5.41528V5.41528C32.0265 5.41554 32.092 5.44244 32.1408 5.49016C32.1895 5.53787 32.2178 5.6025 32.2178 5.66985L32.2168 12.2197Z" fill="white"/>
<path d="M25.0585 6.80437C25.5384 6.86278 25.9802 7.08955 26.3012 7.44233C26.6222 7.7951 26.8006 8.24975 26.8029 8.72135V29.7994C26.8089 30.0535 26.7589 30.3059 26.6567 30.5397C26.5545 30.7735 26.4022 30.9834 26.2101 31.1551C25.9048 31.4669 25.4976 31.6649 25.0585 31.7149V36.9368C25.0577 37.0041 25.0299 37.0684 24.981 37.1159C24.932 37.1634 24.8657 37.1904 24.7967 37.1909C24.7274 37.1909 24.6614 37.1641 24.6124 37.1165C24.5633 37.0689 24.5356 37.0042 24.5353 36.9368V31.7154C24.0962 31.665 23.6885 31.4671 23.3828 31.1556C23.1908 30.9838 23.0388 30.7739 22.9367 30.5401C22.8346 30.3063 22.7849 30.054 22.7909 29.7999V8.72184C22.7928 8.25019 22.9711 7.79538 23.2921 7.44253C23.6131 7.08968 24.0548 6.86298 24.5348 6.80486V0.255565C24.5348 0.18787 24.5623 0.122939 24.6114 0.0750253C24.6604 0.0271114 24.7267 0.000128945 24.7962 0V0C24.8656 0.000257128 24.9324 0.0272807 24.9814 0.0751668C25.0305 0.123053 25.0579 0.187909 25.058 0.255565L25.0585 6.80437Z" fill="white"/>
<path d="M94.3533 17.7226C94.1281 17.7175 93.9047 17.7574 93.696 17.84C93.4874 17.9225 93.2981 18.0461 93.1402 18.2027C92.9829 18.3574 92.859 18.5411 92.7756 18.7432C92.6921 18.9454 92.651 19.1619 92.6546 19.3798C92.6474 19.6839 92.7332 19.9832 92.9013 20.2395C93.0695 20.4957 93.3123 20.6972 93.5985 20.8183C94.4932 21.1415 95.4082 21.4092 96.3376 21.6195C97.4038 21.8625 98.3954 22.3476 99.2327 23.0354C100.138 23.881 100.592 25.0742 100.592 26.6324C100.594 27.3642 100.447 28.0892 100.161 28.7657C99.8748 29.4422 99.4542 30.0568 98.9235 30.5743C98.3929 31.0918 97.7627 31.5019 97.0689 31.7811C96.3752 32.0602 95.6323 32.2028 94.8818 32.2008H90.606C90.3464 32.2025 90.0895 32.1526 89.8503 32.0544C89.6111 31.9562 89.3946 31.8116 89.2145 31.6294C89.0239 31.4564 88.8732 31.246 88.7718 31.0121C88.6704 30.7782 88.6209 30.526 88.6265 30.2722V30.2396C88.6305 29.7271 88.8398 29.2362 89.2096 28.8719C89.5794 28.5077 90.0804 28.2988 90.606 28.2898H95.0427C95.2667 28.2925 95.4893 28.2517 95.6969 28.1696C95.9046 28.0874 96.093 27.9657 96.2518 27.8116C96.4106 27.6575 96.5361 27.4741 96.6213 27.2721C96.7066 27.07 96.7498 26.8533 96.7481 26.6348C96.7475 26.3474 96.6581 26.0669 96.4917 25.8297C96.3252 25.5925 96.0894 25.4096 95.8149 25.3049C95.6522 25.2348 94.7347 24.9682 93.0642 24.5096C91.988 24.2584 90.992 23.753 90.1633 23.0381C89.2583 22.1777 88.8059 20.959 88.8059 19.3821C88.8118 17.9069 89.4154 16.4937 90.485 15.4505C91.5547 14.4072 93.0041 13.8185 94.5171 13.8123H97.535C98.0639 13.8139 98.5703 14.0195 98.944 14.3844C99.3177 14.7493 99.5283 15.2438 99.5291 15.7595V15.792C99.536 16.0457 99.4874 16.298 99.3867 16.532C99.286 16.766 99.1345 16.9764 98.944 17.1493C98.7619 17.3342 98.5429 17.4807 98.3005 17.58C98.058 17.6792 97.798 17.7289 97.535 17.7261L94.3533 17.7226ZM69.6111 38.7628C69.0885 38.7567 68.5892 38.5515 68.2196 38.1911C67.8501 37.8307 67.6397 37.3437 67.6336 36.8341V22.9755C67.6409 21.1597 68.1997 19.3868 69.2396 17.8804C70.2795 16.374 71.7538 15.2017 73.4764 14.5116C75.199 13.8215 77.0927 13.6443 78.9184 14.0027C80.7441 14.3611 82.4199 15.2388 83.7344 16.5251C85.049 17.8114 85.9428 19.4485 86.3038 21.2299C86.6649 23.0113 86.4775 24.8571 85.7636 26.5343C85.0497 28.2114 83.8419 29.6448 82.2932 30.6534C80.7446 31.662 78.9242 32.2006 77.0618 32.2013C74.6864 32.2013 72.8748 31.6688 71.6452 30.6061V36.8341C71.6365 37.3441 71.4238 37.8308 71.0533 38.1909C70.6828 38.5509 70.1839 38.756 69.6608 38.7628H69.6111ZM77.0618 28.2568C77.7778 28.2635 78.488 28.1319 79.1515 27.8694C79.8149 27.6069 80.4184 27.2188 80.9271 26.7275C81.4358 26.2362 81.8392 25.6514 82.1148 25.0071C82.3904 24.3628 82.5331 23.6715 82.5331 22.9734C82.5331 22.2753 82.3904 21.5841 82.1148 20.9397C81.8392 20.2954 81.4358 19.7108 80.9271 19.2195C80.4184 18.7283 79.8149 18.3402 79.1515 18.0777C78.488 17.8152 77.7778 17.6833 77.0618 17.69C75.9914 17.6925 74.9453 18.0035 74.0556 18.5837C73.1659 19.164 72.4726 19.9877 72.0615 20.9514C71.6505 21.915 71.5403 22.9757 71.7456 24C71.9509 25.0243 72.4622 25.9664 73.2151 26.7082C73.7133 27.2095 74.3115 27.6058 74.9732 27.8722C75.6349 28.1386 76.3461 28.2694 77.0618 28.2568V28.2568ZM61.7421 11.7347C61.3659 11.7368 60.9943 11.6483 60.6617 11.477C60.329 11.3057 60.045 11.0567 59.8348 10.7525C59.6245 10.4483 59.4944 10.0983 59.4564 9.73329C59.4185 9.36834 59.474 9.00001 59.6173 8.66083C59.7606 8.32165 59.9879 8.02221 60.2784 7.78922C60.569 7.55623 60.9138 7.3968 61.2828 7.32525C61.6518 7.25369 62.0335 7.27212 62.3934 7.37896C62.7533 7.48581 63.0806 7.67786 63.3461 7.93778C63.5634 8.14112 63.736 8.38521 63.8541 8.65536C63.9723 8.92552 64.0335 9.21618 64.0335 9.50986C64.0335 9.80355 63.9723 10.0942 63.8541 10.3644C63.736 10.6345 63.5634 10.8786 63.3461 11.082C63.1385 11.2916 62.8887 11.4577 62.6128 11.5699C62.337 11.6822 62.041 11.7382 61.7421 11.7347V11.7347ZM61.7596 13.8104C62.0199 13.8049 62.2785 13.8531 62.5182 13.9518C62.758 14.0506 62.9737 14.1975 63.1511 14.3832C63.3391 14.5614 63.4872 14.775 63.5879 15.011C63.6887 15.247 63.7399 15.5003 63.7371 15.7559V30.2731C63.731 30.7827 63.5206 31.2697 63.1511 31.6301C62.7816 31.9905 62.2822 32.1957 61.7596 32.2018H61.7255C61.4631 32.2054 61.2024 32.1567 60.96 32.0584C60.7177 31.9601 60.4988 31.8144 60.3165 31.6304C60.1259 31.4571 59.9748 31.2469 59.8728 31.0131C59.7708 30.7793 59.7204 30.5272 59.7246 30.2731V15.7559C59.7236 15.5 59.775 15.2466 59.8767 15.0108C59.9784 14.7749 60.1282 14.5615 60.3165 14.3832C60.4987 14.199 60.7177 14.0532 60.96 13.9547C61.2023 13.8561 61.463 13.8071 61.7255 13.8104H61.7596ZM39.4542 38.7632C38.9315 38.7568 38.4316 38.5516 38.0618 38.1913C37.692 37.8311 37.4808 37.3443 37.4738 36.8346V22.976C37.4808 21.1598 38.0399 19.3863 39.0798 17.8794C40.1197 16.3726 41.5947 15.1999 43.3176 14.5095C45.0405 13.819 46.9344 13.6419 48.7606 14.0003C50.5867 14.3587 52.2627 15.2366 53.5776 16.5232C54.8924 17.8098 55.7868 19.4472 56.1479 21.229C56.509 23.0108 56.3209 24.857 55.6067 26.5345C54.8926 28.212 53.6845 29.6455 52.1354 30.6542C50.5863 31.6628 48.7658 32.2014 46.903 32.2018C44.5296 32.2018 42.717 31.6693 41.4873 30.6066V36.8346C41.4787 37.3444 41.2667 37.8308 40.8964 38.1909C40.5261 38.5509 40.0268 38.7562 39.504 38.7632H39.4542ZM46.903 28.2573C47.619 28.264 48.3292 28.1324 48.9927 27.8698C49.6561 27.6073 50.2596 27.2192 50.7683 26.728C51.277 26.2367 51.6804 25.6519 51.956 25.0076C52.2316 24.3632 52.3733 23.672 52.3733 22.9739C52.3733 22.2758 52.2316 21.5845 51.956 20.9402C51.6804 20.2959 51.277 19.7113 50.7683 19.22C50.2596 18.7287 49.6561 18.3407 48.9927 18.0782C48.3292 17.8156 47.619 17.6838 46.903 17.6905C45.8328 17.6934 44.7871 18.0047 43.8978 18.5852C43.0084 19.1656 42.3144 19.9892 41.9037 20.9528C41.4929 21.9164 41.3833 22.9769 41.5887 24.0009C41.7941 25.025 42.3054 25.967 43.0582 26.7087C43.5561 27.2098 44.1549 27.6059 44.8163 27.8722C45.4777 28.1385 46.1876 28.2694 46.903 28.2568V28.2573Z" fill="white"/>
<path d="M9.42725 17.3521C8.71184 17.3397 8.00145 17.4707 7.34016 17.7372C6.67887 18.0036 6.08079 18.3997 5.58302 18.9009C4.57646 19.8997 4.01246 21.2442 4.01246 22.6445C4.01246 24.0448 4.57646 25.3889 5.58302 26.3877C6.0841 26.8834 6.68318 27.2748 7.34397 27.5381C8.00476 27.8014 8.7135 27.9315 9.42725 27.9198C10.1404 27.9236 10.8472 27.7892 11.5067 27.5248C12.1663 27.2604 12.7655 26.8709 13.2697 26.3791C13.7738 25.8874 14.1729 25.3033 14.4439 24.6601C14.7148 24.017 14.8522 23.3275 14.8481 22.6322C14.8598 21.9374 14.725 21.2479 14.4521 20.6061C14.1791 19.9642 13.7739 19.3837 13.2615 18.9009C12.7654 18.4003 12.169 18.0046 11.5094 17.7381C10.8498 17.4716 10.1411 17.3403 9.42725 17.3521ZM9.42725 13.4392C10.6688 13.4211 11.901 13.6511 13.0478 14.1152C14.1946 14.5794 15.2318 15.2679 16.0952 16.138C16.9863 16.9792 17.6914 17.9894 18.1672 19.1063C18.6429 20.2231 18.8792 21.4229 18.8616 22.6322V29.9027C18.867 30.1565 18.8175 30.4084 18.7163 30.6424C18.615 30.8763 18.4643 31.087 18.274 31.2604C18.0935 31.4422 17.8771 31.5863 17.6379 31.6844C17.3987 31.7825 17.1416 31.8326 16.8821 31.8313H16.8321C16.5727 31.8336 16.3155 31.784 16.0764 31.6858C15.8373 31.5876 15.6213 31.4429 15.4417 31.2604C15.2495 31.0882 15.0971 30.8779 14.9948 30.6438C14.8924 30.4097 14.8424 30.1571 14.8481 29.9027C13.6073 31.1884 11.8004 31.8313 9.42725 31.8313C8.18681 31.849 6.95579 31.6186 5.81003 31.1548C4.66428 30.691 3.62807 30.0036 2.76525 29.1344C1.88822 28.282 1.19236 27.269 0.717559 26.1538C0.242758 25.0386 -0.00164795 23.8429 -0.00164795 22.6355C-0.00164795 21.428 0.242758 20.2328 0.717559 19.1177C1.19236 18.0025 1.88822 16.9895 2.76525 16.137C3.62802 15.2678 4.66422 14.5801 5.80997 14.1162C6.95573 13.6523 8.18678 13.422 9.42725 13.4397V13.4392Z" fill="white"/>
</g>
<defs>
<clipPath id="clip0_141_50">
<rect width="100.792" height="41" fill="white"/>
</clipPath>
</defs>
</svg>
