<svg width="200" height="50" viewBox="0 0 200 50" fill="none" xmlns="http://www.w3.org/2000/svg">
<g clip-path="url(#clip0_149_240)">
<path fill-rule="evenodd" clip-rule="evenodd" d="M37.14 28.16C37.14 34.8703 31.7002 40.31 24.99 40.31C18.2797 40.31 12.84 34.8703 12.84 28.16C12.84 21.4497 18.2797 16.01 24.99 16.01C31.7002 16.01 37.14 21.4497 37.14 28.16ZM27.2399 31.44H28.6799V29.53H27.2399V22H24.9199L19.7799 29.68V31.44H24.7799V33.92H27.2399V31.44ZM24.7799 27.14V29.44L21.9599 29.45L23.9599 26.45C24.1099 26.19 24.2599 25.93 24.3799 25.68L24.7099 24.95H24.7799V25.21V25.64V26.16V26.68V27.14Z" fill="white"/>
<path d="M25.03 12.12C27.7307 12.12 29.92 9.40685 29.92 6.06C29.92 2.71315 27.7307 0 25.03 0C22.3293 0 20.14 2.71315 20.14 6.06C20.14 9.40685 22.3293 12.12 25.03 12.12Z" fill="white"/>
<path d="M32.81 17.09C33.1842 16.0879 33.4654 15.0536 33.65 14C34.42 14.38 35 17.37 34.92 18.93C37.1446 21.2875 38.4533 24.3624 38.61 27.6C40.21 25.15 44.9 8.2 30.75 4C31.51 12.32 25.84 13.26 25.18 13.28C24.52 13.3 18.37 12.51 19.18 4.15C9.88 6.18 9.1 14.74 9.37 17.88C11.3875 16.7328 13.6353 16.0495 15.95 15.88C16.1032 15.1873 16.4223 14.5421 16.88 14C16.88 14.74 16.93 15.16 16.94 15.77C17.39 15.71 18.59 15.59 20.15 15.53C22.2287 14.7389 24.4696 14.4692 26.6766 14.7447C28.8836 15.0201 30.9895 15.8322 32.81 17.11V17.09Z" fill="white"/>
<path d="M49.4595 42.0386C50.8102 39.7 49.5558 36.4472 46.6576 34.7732C43.7595 33.0993 40.315 33.6381 38.9643 35.9767C37.6135 38.3154 38.868 41.5682 41.7661 43.2421C44.6643 44.916 48.1087 44.3772 49.4595 42.0386Z" fill="white"/>
<path d="M37.85 35.5C38.19 34.9 41.92 29.99 48.74 34.9C51.68 25.82 44.66 20.9 41.8 19.53C41.8073 21.8561 41.2877 24.1536 40.28 26.25C40.7965 26.7341 41.1906 27.3339 41.43 28L39.86 27.17C39.69 27.58 39.22 28.63 38.52 29.97C38.2347 32.2088 37.3983 34.3418 36.0859 36.1778C34.7735 38.0138 33.0259 39.4955 31 40.49C31.6285 41.2107 32.3141 41.8795 33.05 42.49C32.41 42.91 30.05 42.15 28.58 41.38C25.4281 42.2274 22.0772 41.9224 19.13 40.52C21.51 44 33 54.55 43.1 45C35.51 41.47 37.53 36.08 37.85 35.5Z" fill="white"/>
<path d="M11 35.9401C9.63996 33.6001 6.19996 33.0701 3.29996 34.7401C0.399963 36.4101 -0.810037 39.6701 0.549963 42.0001C1.90996 44.3301 5.34996 44.8801 8.23996 43.2001C11.13 41.5201 12.38 38.2801 11 35.9401Z" fill="white"/>
<path d="M11.37 28.2499C11.37 27.7299 11.37 27.2499 11.46 26.7099C10.3889 26.8889 9.33744 27.1702 8.32001 27.5499C8.26001 26.6599 10.71 24.5499 12.08 23.9099C12.8252 21.6922 14.1307 19.7046 15.87 18.1399C16.4696 17.5074 17.1408 16.947 17.87 16.4699C16 15.9999 -2.43999 20.1899 1.18001 34.9999C7.99001 30.1699 11.65 34.5999 11.99 35.1699C12.33 35.7399 14.75 41.4799 7.10001 44.9999C13.49 51.9999 21.29 48.4099 23.88 46.5999C21.8589 45.4463 20.1254 43.8496 18.81 41.9299C18.1353 42.1293 17.4243 42.1738 16.73 42.0599L18.23 41.0599C18.01 40.7699 17.51 40.0599 16.9 39.1499C15.1917 37.8905 13.8018 36.2488 12.8415 34.3561C11.8813 32.4634 11.3773 30.3722 11.37 28.2499Z" fill="white"/>
</g>
<path d="M63.1289 15.5076H66.1055L70.4883 28.0349L74.8711 15.5076H77.8477L71.6836 32.5701H69.293L63.1289 15.5076ZM61.5234 15.5076H64.4883L65.0273 27.7185V32.5701H61.5234V15.5076ZM76.4883 15.5076H79.4648V32.5701H75.9492V27.7185L76.4883 15.5076ZM88.1719 32.8044C87.1875 32.8044 86.3047 32.6482 85.5234 32.3357C84.7422 32.0154 84.0781 31.574 83.5312 31.0115C82.9922 30.449 82.5781 29.7966 82.2891 29.0544C82 28.3044 81.8555 27.5076 81.8555 26.6638V26.1951C81.8555 25.2341 81.9922 24.3552 82.2656 23.5583C82.5391 22.7615 82.9297 22.0701 83.4375 21.4841C83.9531 20.8982 84.5781 20.449 85.3125 20.1365C86.0469 19.8162 86.875 19.656 87.7969 19.656C88.6953 19.656 89.4922 19.8044 90.1875 20.1013C90.8828 20.3982 91.4648 20.8201 91.9336 21.3669C92.4102 21.9138 92.7695 22.5701 93.0117 23.3357C93.2539 24.0935 93.375 24.9373 93.375 25.8669V27.2732H83.2969V25.0232H90.0586V24.7654C90.0586 24.2966 89.9727 23.8787 89.8008 23.5115C89.6367 23.1365 89.3867 22.8396 89.0508 22.6208C88.7148 22.4021 88.2852 22.2927 87.7617 22.2927C87.3164 22.2927 86.9336 22.3904 86.6133 22.5857C86.293 22.781 86.0312 23.0544 85.8281 23.406C85.6328 23.7576 85.4844 24.1716 85.3828 24.6482C85.2891 25.1169 85.2422 25.6326 85.2422 26.1951V26.6638C85.2422 27.1716 85.3125 27.6404 85.4531 28.0701C85.6016 28.4998 85.8086 28.8708 86.0742 29.1833C86.3477 29.4958 86.6758 29.738 87.0586 29.9099C87.4492 30.0818 87.8906 30.1677 88.3828 30.1677C88.9922 30.1677 89.5586 30.0505 90.082 29.8162C90.6133 29.574 91.0703 29.2107 91.4531 28.7263L93.0938 30.5076C92.8281 30.8904 92.4648 31.2576 92.0039 31.6091C91.5508 31.9607 91.0039 32.2498 90.3633 32.4763C89.7227 32.6951 88.9922 32.8044 88.1719 32.8044ZM101.508 19.8904V22.281H94.125V19.8904H101.508ZM95.9531 16.7615H99.3281V28.7498C99.3281 29.1169 99.375 29.3982 99.4688 29.5935C99.5703 29.7888 99.7188 29.9255 99.9141 30.0037C100.109 30.074 100.355 30.1091 100.652 30.1091C100.863 30.1091 101.051 30.1013 101.215 30.0857C101.387 30.0623 101.531 30.0388 101.648 30.0154L101.66 32.4998C101.371 32.5935 101.059 32.6677 100.723 32.7224C100.387 32.7771 100.016 32.8044 99.6094 32.8044C98.8672 32.8044 98.2188 32.6833 97.6641 32.4412C97.1172 32.1912 96.6953 31.7927 96.3984 31.2458C96.1016 30.699 95.9531 29.9802 95.9531 29.0896V16.7615ZM110.273 29.7107V24.0623C110.273 23.656 110.207 23.3083 110.074 23.0193C109.941 22.7224 109.734 22.4919 109.453 22.3279C109.18 22.1638 108.824 22.0818 108.387 22.0818C108.012 22.0818 107.688 22.1482 107.414 22.281C107.141 22.406 106.93 22.5896 106.781 22.8318C106.633 23.0662 106.559 23.3435 106.559 23.6638H103.184C103.184 23.1248 103.309 22.613 103.559 22.1287C103.809 21.6443 104.172 21.2185 104.648 20.8513C105.125 20.4763 105.691 20.1833 106.348 19.9724C107.012 19.7615 107.754 19.656 108.574 19.656C109.559 19.656 110.434 19.8201 111.199 20.1482C111.965 20.4763 112.566 20.9685 113.004 21.6248C113.449 22.281 113.672 23.1013 113.672 24.0857V29.5115C113.672 30.2068 113.715 30.7771 113.801 31.2224C113.887 31.6599 114.012 32.0427 114.176 32.3708V32.5701H110.766C110.602 32.2263 110.477 31.7966 110.391 31.281C110.312 30.7576 110.273 30.2341 110.273 29.7107ZM110.719 24.8474L110.742 26.7576H108.855C108.41 26.7576 108.023 26.8083 107.695 26.9099C107.367 27.0115 107.098 27.156 106.887 27.3435C106.676 27.5232 106.52 27.7341 106.418 27.9763C106.324 28.2185 106.277 28.4841 106.277 28.7732C106.277 29.0623 106.344 29.324 106.477 29.5583C106.609 29.7849 106.801 29.9646 107.051 30.0974C107.301 30.2224 107.594 30.2849 107.93 30.2849C108.438 30.2849 108.879 30.1833 109.254 29.9802C109.629 29.7771 109.918 29.5271 110.121 29.2302C110.332 28.9333 110.441 28.6521 110.449 28.3865L111.34 29.8162C111.215 30.1365 111.043 30.4685 110.824 30.8123C110.613 31.156 110.344 31.4802 110.016 31.7849C109.688 32.0818 109.293 32.3279 108.832 32.5232C108.371 32.7107 107.824 32.8044 107.191 32.8044C106.387 32.8044 105.656 32.6443 105 32.324C104.352 31.9958 103.836 31.5466 103.453 30.9763C103.078 30.3982 102.891 29.7419 102.891 29.0076C102.891 28.3435 103.016 27.7537 103.266 27.238C103.516 26.7224 103.883 26.2888 104.367 25.9373C104.859 25.5779 105.473 25.3083 106.207 25.1287C106.941 24.9412 107.793 24.8474 108.762 24.8474H110.719ZM124.113 15.5076V32.5701H120.609V15.5076H124.113ZM129.363 15.5076V18.2615H115.441V15.5076H129.363ZM133.711 22.656V32.5701H130.336V19.8904H133.512L133.711 22.656ZM137.531 19.8083L137.473 22.9373C137.309 22.9138 137.109 22.8943 136.875 22.8787C136.648 22.8552 136.441 22.8435 136.254 22.8435C135.777 22.8435 135.363 22.906 135.012 23.031C134.668 23.1482 134.379 23.324 134.145 23.5583C133.918 23.7927 133.746 24.0779 133.629 24.4138C133.52 24.7498 133.457 25.1326 133.441 25.5623L132.762 25.3513C132.762 24.531 132.844 23.7771 133.008 23.0896C133.172 22.3943 133.41 21.7888 133.723 21.2732C134.043 20.7576 134.434 20.3591 134.895 20.0779C135.355 19.7966 135.883 19.656 136.477 19.656C136.664 19.656 136.855 19.6716 137.051 19.7029C137.246 19.7263 137.406 19.7615 137.531 19.8083ZM146.379 29.8044V14.5701H149.777V32.5701H146.719L146.379 29.8044ZM138.363 26.3826V26.1365C138.363 25.1677 138.473 24.2888 138.691 23.4998C138.91 22.7029 139.23 22.0193 139.652 21.449C140.074 20.8787 140.594 20.4373 141.211 20.1248C141.828 19.8123 142.531 19.656 143.32 19.656C144.062 19.656 144.711 19.8123 145.266 20.1248C145.828 20.4373 146.305 20.8826 146.695 21.4607C147.094 22.031 147.414 22.7068 147.656 23.488C147.898 24.2615 148.074 25.1091 148.184 26.031V26.5701C148.074 27.4529 147.898 28.2732 147.656 29.031C147.414 29.7888 147.094 30.4529 146.695 31.0232C146.305 31.5857 145.828 32.0232 145.266 32.3357C144.703 32.6482 144.047 32.8044 143.297 32.8044C142.508 32.8044 141.805 32.6443 141.188 32.324C140.578 32.0037 140.062 31.5544 139.641 30.9763C139.227 30.3982 138.91 29.7185 138.691 28.9373C138.473 28.156 138.363 27.3044 138.363 26.3826ZM141.738 26.1365V26.3826C141.738 26.906 141.777 27.3943 141.855 27.8474C141.941 28.3005 142.078 28.7029 142.266 29.0544C142.461 29.3982 142.711 29.6677 143.016 29.863C143.328 30.0505 143.707 30.1443 144.152 30.1443C144.73 30.1443 145.207 30.0154 145.582 29.7576C145.957 29.4919 146.242 29.1287 146.438 28.6677C146.641 28.2068 146.758 27.6755 146.789 27.074V25.5388C146.766 25.0466 146.695 24.6052 146.578 24.2146C146.469 23.8162 146.305 23.4763 146.086 23.1951C145.875 22.9138 145.609 22.6951 145.289 22.5388C144.977 22.3826 144.605 22.3044 144.176 22.3044C143.738 22.3044 143.363 22.406 143.051 22.6091C142.738 22.8044 142.484 23.074 142.289 23.4177C142.102 23.7615 141.961 24.1677 141.867 24.6365C141.781 25.0974 141.738 25.5974 141.738 26.1365ZM159.258 29.7107V24.0623C159.258 23.656 159.191 23.3083 159.059 23.0193C158.926 22.7224 158.719 22.4919 158.438 22.3279C158.164 22.1638 157.809 22.0818 157.371 22.0818C156.996 22.0818 156.672 22.1482 156.398 22.281C156.125 22.406 155.914 22.5896 155.766 22.8318C155.617 23.0662 155.543 23.3435 155.543 23.6638H152.168C152.168 23.1248 152.293 22.613 152.543 22.1287C152.793 21.6443 153.156 21.2185 153.633 20.8513C154.109 20.4763 154.676 20.1833 155.332 19.9724C155.996 19.7615 156.738 19.656 157.559 19.656C158.543 19.656 159.418 19.8201 160.184 20.1482C160.949 20.4763 161.551 20.9685 161.988 21.6248C162.434 22.281 162.656 23.1013 162.656 24.0857V29.5115C162.656 30.2068 162.699 30.7771 162.785 31.2224C162.871 31.6599 162.996 32.0427 163.16 32.3708V32.5701H159.75C159.586 32.2263 159.461 31.7966 159.375 31.281C159.297 30.7576 159.258 30.2341 159.258 29.7107ZM159.703 24.8474L159.727 26.7576H157.84C157.395 26.7576 157.008 26.8083 156.68 26.9099C156.352 27.0115 156.082 27.156 155.871 27.3435C155.66 27.5232 155.504 27.7341 155.402 27.9763C155.309 28.2185 155.262 28.4841 155.262 28.7732C155.262 29.0623 155.328 29.324 155.461 29.5583C155.594 29.7849 155.785 29.9646 156.035 30.0974C156.285 30.2224 156.578 30.2849 156.914 30.2849C157.422 30.2849 157.863 30.1833 158.238 29.9802C158.613 29.7771 158.902 29.5271 159.105 29.2302C159.316 28.9333 159.426 28.6521 159.434 28.3865L160.324 29.8162C160.199 30.1365 160.027 30.4685 159.809 30.8123C159.598 31.156 159.328 31.4802 159 31.7849C158.672 32.0818 158.277 32.3279 157.816 32.5232C157.355 32.7107 156.809 32.8044 156.176 32.8044C155.371 32.8044 154.641 32.6443 153.984 32.324C153.336 31.9958 152.82 31.5466 152.438 30.9763C152.062 30.3982 151.875 29.7419 151.875 29.0076C151.875 28.3435 152 27.7537 152.25 27.238C152.5 26.7224 152.867 26.2888 153.352 25.9373C153.844 25.5779 154.457 25.3083 155.191 25.1287C155.926 24.9412 156.777 24.8474 157.746 24.8474H159.703ZM171.094 32.8044C170.109 32.8044 169.227 32.6482 168.445 32.3357C167.664 32.0154 167 31.574 166.453 31.0115C165.914 30.449 165.5 29.7966 165.211 29.0544C164.922 28.3044 164.777 27.5076 164.777 26.6638V26.1951C164.777 25.2341 164.914 24.3552 165.188 23.5583C165.461 22.7615 165.852 22.0701 166.359 21.4841C166.875 20.8982 167.5 20.449 168.234 20.1365C168.969 19.8162 169.797 19.656 170.719 19.656C171.617 19.656 172.414 19.8044 173.109 20.1013C173.805 20.3982 174.387 20.8201 174.855 21.3669C175.332 21.9138 175.691 22.5701 175.934 23.3357C176.176 24.0935 176.297 24.9373 176.297 25.8669V27.2732H166.219V25.0232H172.98V24.7654C172.98 24.2966 172.895 23.8787 172.723 23.5115C172.559 23.1365 172.309 22.8396 171.973 22.6208C171.637 22.4021 171.207 22.2927 170.684 22.2927C170.238 22.2927 169.855 22.3904 169.535 22.5857C169.215 22.781 168.953 23.0544 168.75 23.406C168.555 23.7576 168.406 24.1716 168.305 24.6482C168.211 25.1169 168.164 25.6326 168.164 26.1951V26.6638C168.164 27.1716 168.234 27.6404 168.375 28.0701C168.523 28.4998 168.73 28.8708 168.996 29.1833C169.27 29.4958 169.598 29.738 169.98 29.9099C170.371 30.0818 170.812 30.1677 171.305 30.1677C171.914 30.1677 172.48 30.0505 173.004 29.8162C173.535 29.574 173.992 29.2107 174.375 28.7263L176.016 30.5076C175.75 30.8904 175.387 31.2576 174.926 31.6091C174.473 31.9607 173.926 32.2498 173.285 32.4763C172.645 32.6951 171.914 32.8044 171.094 32.8044ZM181.594 22.656V32.5701H178.219V19.8904H181.395L181.594 22.656ZM185.414 19.8083L185.355 22.9373C185.191 22.9138 184.992 22.8943 184.758 22.8787C184.531 22.8552 184.324 22.8435 184.137 22.8435C183.66 22.8435 183.246 22.906 182.895 23.031C182.551 23.1482 182.262 23.324 182.027 23.5583C181.801 23.7927 181.629 24.0779 181.512 24.4138C181.402 24.7498 181.34 25.1326 181.324 25.5623L180.645 25.3513C180.645 24.531 180.727 23.7771 180.891 23.0896C181.055 22.3943 181.293 21.7888 181.605 21.2732C181.926 20.7576 182.316 20.3591 182.777 20.0779C183.238 19.7966 183.766 19.656 184.359 19.656C184.547 19.656 184.738 19.6716 184.934 19.7029C185.129 19.7263 185.289 19.7615 185.414 19.8083ZM198.82 26.1951V28.8435H186.527L186.363 26.7927L193.477 15.5076H196.16L193.254 20.3708L189.715 26.1951H198.82ZM196.887 15.5076V32.5701H193.512V15.5076H196.887Z" fill="white"/>
<defs>
<clipPath id="clip0_149_240">
<rect width="50" height="49.14" fill="white"/>
</clipPath>
</defs>
</svg>
