<svg aria-hidden="true" style="position: absolute; width: 0; height: 0; overflow: hidden;" version="1.1" xmlns="http://www.w3.org/2000/svg" xmlns:xlink="http://www.w3.org/1999/xlink">
<defs>
<symbol id="icon-money-back" viewBox="0 0 41 32">
<path   d="M1.726 4.97c-1.114 1.913-1.423 4.19-0.859 6.33l0.779 2.953-1.059-0.617c-0.089-0.052-0.203-0.022-0.254 0.067s-0.022 0.203 0.067 0.254l1.447 0.843c0.089 0.052 0.203 0.022 0.254-0.067l0.843-1.447c0.052-0.089 0.022-0.203-0.067-0.254s-0.203-0.022-0.254 0.067l-0.617 1.059-0.779-2.953c-0.539-2.045-0.244-4.221 0.82-6.048s2.812-3.157 4.857-3.697l3.573-0.942-0.095-0.36-3.573 0.942c-2.14 0.565-3.969 1.956-5.083 3.869zM9.562 5.067c1.365-0.497 3.214-0.793 5.229-0.793s3.864 0.296 5.229 0.793c0.68 0.247 1.27 0.555 1.7 0.925 0.428 0.368 0.754 0.85 0.754 1.432v5.051c1.16-0.271 2.525-0.425 3.976-0.425 2.015 0 3.864 0.296 5.229 0.793 0.68 0.247 1.27 0.555 1.7 0.925 0.428 0.368 0.754 0.85 0.754 1.432v10.368c0 0.582-0.326 1.064-0.754 1.432-0.43 0.37-1.020 0.678-1.7 0.925-1.365 0.497-3.214 0.793-5.229 0.793s-3.864-0.296-5.229-0.793c-0.68-0.247-1.27-0.555-1.7-0.925-0.396-0.34-0.704-0.777-0.748-1.3-1.16 0.272-2.526 0.426-3.982 0.426-2.015 0-3.864-0.296-5.229-0.793-0.68-0.247-1.27-0.555-1.7-0.925-0.428-0.368-0.754-0.85-0.754-1.432v-15.552c0-0.582 0.326-1.064 0.754-1.432 0.43-0.37 1.020-0.678 1.7-0.925zM8.224 9.129v3.479c0 0.134 0.073 0.334 0.366 0.586 0.291 0.25 0.745 0.501 1.354 0.723 1.214 0.442 2.928 0.726 4.848 0.726 1.679 0 3.203-0.217 4.374-0.569 0.021-0.006 0.043-0.011 0.064-0.015 0.089-0.103 0.188-0.2 0.292-0.29 0.039-0.034 0.080-0.067 0.121-0.1 0.016-0.012 0.032-0.025 0.048-0.037 0.058-0.044 0.119-0.087 0.182-0.129 0.379-0.254 0.838-0.474 1.349-0.659 0.045-0.016 0.091-0.033 0.137-0.049v-3.665c-0.377 0.251-0.833 0.468-1.338 0.652-1.365 0.497-3.214 0.793-5.229 0.793s-3.864-0.296-5.229-0.793c-0.505-0.184-0.961-0.401-1.338-0.652zM21.359 7.424c0-0.134-0.073-0.334-0.366-0.586-0.291-0.25-0.745-0.501-1.354-0.723-1.214-0.442-2.928-0.726-4.848-0.726s-3.634 0.284-4.848 0.726c-0.609 0.222-1.063 0.472-1.354 0.723-0.293 0.252-0.366 0.452-0.366 0.586s0.073 0.334 0.366 0.586c0.291 0.25 0.745 0.501 1.354 0.723 1.214 0.442 2.928 0.726 4.848 0.726s3.634-0.284 4.848-0.726c0.609-0.222 1.063-0.472 1.354-0.723 0.293-0.252 0.366-0.452 0.366-0.586zM18.768 15.334c-1.158 0.271-2.523 0.425-3.976 0.425-2.015 0-3.864-0.296-5.229-0.793-0.505-0.184-0.961-0.401-1.338-0.652v3.479c0 0.134 0.073 0.334 0.366 0.586 0.291 0.25 0.745 0.501 1.354 0.723 1.214 0.442 2.928 0.726 4.848 0.726 1.495 0 2.867-0.172 3.976-0.458v-4.035zM19.884 19.805v0.579c0 0.134 0.073 0.334 0.366 0.586 0.291 0.25 0.745 0.501 1.354 0.723 1.214 0.442 2.928 0.726 4.848 0.726s3.634-0.284 4.848-0.726c0.609-0.222 1.063-0.472 1.354-0.723 0.293-0.252 0.366-0.452 0.366-0.586v-3.479c-0.377 0.251-0.833 0.468-1.338 0.652-1.365 0.497-3.214 0.793-5.229 0.793s-3.864-0.296-5.229-0.793c-0.505-0.184-0.961-0.401-1.338-0.652v2.874c0 0.009 0 0.017 0 0.026zM18.768 20.518c-1.158 0.271-2.523 0.425-3.976 0.425-2.015 0-3.864-0.296-5.229-0.793-0.505-0.184-0.961-0.401-1.338-0.652v3.479c0 0.134 0.073 0.334 0.366 0.586 0.291 0.25 0.745 0.501 1.354 0.723 1.214 0.442 2.928 0.726 4.848 0.726 1.495 0 2.867-0.172 3.976-0.458v-4.035zM19.884 22.090v3.479c0 0.134 0.073 0.334 0.366 0.586 0.291 0.25 0.745 0.501 1.354 0.723 1.214 0.442 2.928 0.726 4.848 0.726s3.634-0.284 4.848-0.726c0.609-0.222 1.063-0.472 1.354-0.723 0.293-0.252 0.366-0.452 0.366-0.586v-3.479c-0.377 0.251-0.833 0.468-1.338 0.652-1.365 0.497-3.214 0.793-5.229 0.793s-3.864-0.296-5.229-0.793c-0.505-0.184-0.961-0.401-1.338-0.652zM33.018 15.2c0-0.134-0.073-0.334-0.366-0.586-0.291-0.25-0.745-0.501-1.354-0.723-1.214-0.442-2.928-0.726-4.848-0.726-1.68 0-3.203 0.218-4.37 0.568l-0.030 0.009c-0.155 0.047-0.305 0.097-0.447 0.149-0.249 0.091-0.472 0.186-0.668 0.284-0.104 0.052-0.201 0.105-0.29 0.158-0.104 0.062-0.198 0.125-0.281 0.188-0.041 0.031-0.079 0.061-0.115 0.092-0.1 0.086-0.174 0.165-0.228 0.239-0.105 0.141-0.137 0.259-0.137 0.347 0 0.134 0.073 0.334 0.366 0.586 0.291 0.25 0.745 0.501 1.354 0.723 1.214 0.442 2.928 0.726 4.848 0.726s3.634-0.284 4.848-0.726c0.609-0.222 1.063-0.472 1.354-0.723 0.293-0.252 0.366-0.452 0.366-0.586zM34.122 30.939c2.156-0.501 4.025-1.839 5.195-3.718s1.546-4.146 1.044-6.302l-0.692-2.975 1.040 0.648c0.087 0.054 0.202 0.028 0.256-0.060s0.028-0.202-0.060-0.256l-1.421-0.885c-0.087-0.054-0.202-0.028-0.256 0.060l-0.885 1.421c-0.054 0.087-0.028 0.202 0.060 0.256s0.202 0.028 0.256-0.060l0.647-1.040 0.692 2.975c0.479 2.060 0.12 4.226-0.998 6.021s-2.903 3.073-4.963 3.552l-3.599 0.837 0.084 0.362 3.599-0.837z"></path>
</symbol>
<symbol id="icon-computer" viewBox="0 0 45 32">
<path d="M4.351 0.446c-0.033 0.033-0.059 0.082-0.075 0.196-0.016 0.118-0.016 0.277-0.016 0.512v0.629c0 0.079-0.052 0.148-0.127 0.17-0.215 0.064-0.421 0.15-0.615 0.255-0.069 0.038-0.155 0.025-0.21-0.031l-0.445-0.445c-0.154-0.154-0.261-0.261-0.352-0.333-0.007-0.006-0.015-0.012-0.022-0.017-0.091-0.069-0.144-0.086-0.191-0.086s-0.1 0.016-0.191 0.086c-0.095 0.072-0.207 0.184-0.373 0.35s-0.278 0.279-0.35 0.373c-0.069 0.091-0.086 0.144-0.086 0.191 0 0.044 0.014 0.093 0.073 0.174 0.004 0.006 0.008 0.011 0.013 0.017 0.072 0.095 0.184 0.207 0.35 0.373l0.445 0.445c0.056 0.056 0.068 0.141 0.031 0.21-0.105 0.194-0.191 0.4-0.255 0.615-0.022 0.075-0.092 0.127-0.17 0.127h-0.629c-0.235 0-0.394 0-0.512 0.016-0.113 0.015-0.163 0.042-0.196 0.075s-0.059 0.082-0.075 0.196c-0.016 0.118-0.016 0.277-0.016 0.512s0 0.394 0.016 0.512c0.015 0.113 0.042 0.163 0.075 0.196s0.082 0.059 0.196 0.075c0.118 0.016 0.277 0.016 0.512 0.016h0.629c0.079 0 0.148 0.052 0.17 0.127 0.064 0.215 0.15 0.421 0.255 0.615 0.038 0.069 0.025 0.155-0.031 0.21l-0.445 0.445c-0.166 0.166-0.278 0.279-0.35 0.373-0.069 0.091-0.086 0.144-0.086 0.191s0.016 0.1 0.086 0.191c0.072 0.095 0.184 0.207 0.35 0.373s0.279 0.278 0.373 0.35c0.091 0.069 0.144 0.086 0.191 0.086s0.1-0.016 0.191-0.086c0.095-0.072 0.207-0.184 0.373-0.35l0.445-0.445c0.056-0.056 0.141-0.068 0.21-0.031 0.194 0.105 0.4 0.191 0.615 0.255 0.075 0.022 0.127 0.092 0.127 0.17v0.63c0 0.235 0 0.394 0.016 0.512 0.015 0.113 0.042 0.163 0.075 0.196s0.082 0.059 0.196 0.075c0.118 0.016 0.277 0.016 0.512 0.016s0.394-0 0.512-0.016c0.113-0.015 0.163-0.042 0.196-0.075s0.059-0.082 0.075-0.196c0.016-0.118 0.016-0.277 0.016-0.512v-0.63c0-0.079 0.052-0.148 0.127-0.17 0.215-0.064 0.421-0.15 0.615-0.255 0.069-0.037 0.155-0.025 0.21 0.031l0.445 0.445c0.166 0.166 0.279 0.278 0.373 0.35 0.091 0.069 0.144 0.086 0.191 0.086s0.1-0.016 0.191-0.086c0.095-0.072 0.207-0.184 0.373-0.35s0.278-0.279 0.35-0.373c0.069-0.091 0.086-0.144 0.086-0.191s-0.016-0.1-0.086-0.191c-0.072-0.095-0.184-0.207-0.35-0.373l-0.445-0.445c-0.056-0.056-0.068-0.141-0.031-0.21 0.105-0.194 0.191-0.4 0.255-0.615 0.022-0.075 0.092-0.127 0.17-0.127h0.63c0.235 0 0.394-0 0.512-0.016 0.113-0.015 0.163-0.042 0.196-0.075s0.059-0.082 0.075-0.196c0.016-0.118 0.016-0.277 0.016-0.512s-0-0.394-0.016-0.512c-0.015-0.113-0.042-0.163-0.075-0.196s-0.082-0.059-0.196-0.075c-0.118-0.016-0.277-0.016-0.512-0.016h-0.63c-0.079 0-0.148-0.052-0.17-0.127-0.064-0.215-0.15-0.421-0.255-0.615-0.037-0.069-0.025-0.155 0.031-0.21l0.445-0.445c0.166-0.166 0.278-0.279 0.35-0.373 0.069-0.091 0.086-0.144 0.086-0.191s-0.016-0.1-0.086-0.191c-0.072-0.095-0.184-0.207-0.35-0.373s-0.278-0.278-0.373-0.35c-0.091-0.069-0.144-0.086-0.191-0.086s-0.1 0.016-0.191 0.086c-0.095 0.072-0.207 0.184-0.373 0.35l-0.445 0.445c-0.056 0.056-0.141 0.068-0.21 0.031-0.194-0.105-0.4-0.191-0.615-0.255-0.075-0.022-0.127-0.092-0.127-0.17v-0.629c0-0.235-0-0.394-0.016-0.512-0.015-0.113-0.042-0.163-0.075-0.196s-0.082-0.059-0.196-0.075c-0.118-0.016-0.277-0.016-0.512-0.016s-0.394 0-0.512 0.016c-0.113 0.015-0.163 0.042-0.196 0.075zM0.595 3.924c0.021-0.003 0.043-0.005 0.065-0.007 0.133-0.012 0.294-0.012 0.482-0.012h0.512c0.051-0.151 0.112-0.297 0.181-0.438l-0.362-0.362c-0.105-0.105-0.198-0.198-0.275-0.283-0.037-0.041-0.070-0.080-0.098-0.117-0.093-0.122-0.158-0.251-0.158-0.407s0.065-0.284 0.158-0.407c0.089-0.116 0.218-0.245 0.373-0.4l0.018-0.018c0.155-0.155 0.284-0.284 0.4-0.373 0.122-0.093 0.251-0.158 0.407-0.158s0.284 0.065 0.407 0.158c0.053 0.040 0.108 0.089 0.168 0.145 0.071 0.067 0.148 0.144 0.233 0.228l0 0 0.362 0.362c0.141-0.070 0.287-0.13 0.438-0.181v-0.512c0-0.126-0-0.24 0.004-0.341 0.003-0.075 0.007-0.144 0.016-0.205 0.021-0.153 0.066-0.29 0.176-0.4s0.247-0.155 0.4-0.176c0.145-0.019 0.327-0.019 0.547-0.019v0 0h0.025c0.22 0 0.402 0 0.547 0.019 0.153 0.021 0.29 0.066 0.4 0.176s0.155 0.247 0.176 0.4c0.019 0.145 0.019 0.327 0.019 0.547v0.512c0.151 0.051 0.297 0.112 0.438 0.181l0.362-0.362c0.155-0.155 0.284-0.284 0.401-0.373 0.122-0.093 0.251-0.158 0.407-0.158s0.284 0.065 0.407 0.158c0.116 0.089 0.245 0.218 0.4 0.373l0.017 0.017c0.155 0.155 0.284 0.284 0.373 0.401 0.093 0.122 0.158 0.251 0.158 0.407s-0.065 0.284-0.158 0.407c-0.089 0.116-0.218 0.245-0.373 0.401l-0.362 0.362c0.070 0.141 0.13 0.287 0.181 0.438h0.512c0.22-0 0.402-0 0.547 0.019 0.153 0.021 0.29 0.066 0.4 0.176s0.155 0.247 0.176 0.4c0.019 0.145 0.019 0.327 0.019 0.547v0.025c0 0.22 0 0.402-0.019 0.547-0.021 0.153-0.066 0.29-0.176 0.4s-0.247 0.155-0.4 0.176c-0.145 0.019-0.327 0.019-0.547 0.019v0h-0.512c-0.051 0.151-0.112 0.297-0.181 0.438l0.363 0.363c0.155 0.155 0.284 0.284 0.373 0.4 0.093 0.122 0.158 0.251 0.158 0.407s-0.065 0.284-0.158 0.407c-0.089 0.116-0.217 0.245-0.373 0.4l-0.018 0.018c-0.155 0.155-0.284 0.284-0.4 0.373-0.122 0.093-0.251 0.158-0.407 0.158s-0.284-0.065-0.407-0.158c-0.116-0.089-0.245-0.218-0.4-0.373l-0.362-0.362c-0.141 0.070-0.287 0.13-0.438 0.181v0.512c0 0.22 0 0.402-0.019 0.547-0.021 0.153-0.066 0.29-0.176 0.4s-0.247 0.155-0.4 0.176c-0.145 0.019-0.327 0.019-0.547 0.019h-0.025c-0.22 0-0.402 0-0.547-0.019-0.153-0.021-0.29-0.066-0.4-0.176s-0.155-0.247-0.176-0.4c-0.019-0.145-0.019-0.327-0.019-0.547v-0.512c-0.151-0.051-0.297-0.112-0.438-0.181l-0.362 0.362c-0.155 0.155-0.284 0.284-0.4 0.373-0.122 0.093-0.251 0.158-0.407 0.158s-0.284-0.065-0.407-0.158c-0.116-0.089-0.245-0.218-0.4-0.373l-0.018-0.018c-0.155-0.155-0.284-0.284-0.373-0.4-0.093-0.122-0.158-0.251-0.158-0.407s0.065-0.284 0.158-0.407c0.089-0.116 0.218-0.245 0.373-0.4l0.362-0.362c-0.070-0.141-0.13-0.287-0.181-0.438h-0.512c-0.22 0-0.402 0-0.547-0.019-0.153-0.021-0.29-0.066-0.4-0.176s-0.155-0.247-0.176-0.4c-0.019-0.145-0.019-0.327-0.019-0.547v0 0-0.025c0-0.22 0-0.402 0.019-0.547 0.021-0.153 0.066-0.29 0.176-0.4s0.247-0.155 0.4-0.176zM5.058 3.822c-0.683 0-1.236 0.553-1.236 1.236s0.553 1.236 1.236 1.236c0.683 0 1.236-0.553 1.236-1.236s-0.553-1.236-1.236-1.236zM3.466 5.058c0-0.879 0.713-1.592 1.592-1.592s1.592 0.713 1.592 1.592c0 0.879-0.713 1.592-1.592 1.592s-1.592-0.713-1.592-1.592zM8.598 0.319l0.39 0.559c0.098 0.14 0.19 0.284 0.276 0.432l0.103 0.176h32.228c0.581 0 1.052 0.471 1.052 1.058v7.927h1.167v-7.927c0-1.226-0.986-2.226-2.219-2.226h-32.996zM1.596 10.49l0.452 0.128c0.142 0.040 0.286 0.075 0.432 0.106l0.283 0.059v13.155c0 0.585 0.474 1.058 1.058 1.058h37.766c0.585 0 1.059-0.474 1.059-1.058v-1.952h1.167v1.952c0 1.229-0.996 2.226-2.225 2.226h-11.873v2.532h0.379c1.428 0 2.586 1.158 2.586 2.586v0.533h-20.451v-0.533c0-1.428 1.158-2.586 2.586-2.586h0.424v-2.532h-11.417c-1.229 0-2.226-0.996-2.226-2.226v-13.446zM28.648 26.162h-12.343v2.486h12.343v-2.486zM13.391 30.746h18.125c-0.216-0.576-0.772-0.986-1.423-0.986h-15.28c-0.651 0-1.207 0.41-1.423 0.986zM12.388 3.725c0.054-0.007 0.126-0.007 0.234-0.007s0.18 0 0.234 0.007c0.052 0.007 0.074 0.019 0.089 0.034s0.027 0.038 0.034 0.089c0.007 0.054 0.007 0.126 0.007 0.234v0.288c0 0.036 0.024 0.068 0.058 0.078 0.098 0.029 0.192 0.069 0.281 0.117 0.032 0.017 0.071 0.011 0.096-0.014l0.204-0.204c0.076-0.076 0.127-0.127 0.171-0.16 0.041-0.032 0.066-0.039 0.087-0.039s0.046 0.007 0.087 0.039c0.043 0.033 0.095 0.084 0.171 0.16s0.127 0.127 0.16 0.171c0.032 0.041 0.039 0.066 0.039 0.087s-0.007 0.046-0.039 0.087c-0.033 0.043-0.084 0.095-0.16 0.171l-0.204 0.204c-0.025 0.025-0.031 0.064-0.014 0.096 0.048 0.089 0.087 0.183 0.117 0.281 0.010 0.034 0.042 0.058 0.078 0.058h0.288c0.107 0 0.18 0 0.234 0.007 0.052 0.007 0.074 0.019 0.089 0.034s0.027 0.038 0.034 0.089c0.007 0.054 0.007 0.126 0.007 0.234s-0 0.18-0.007 0.234c-0.007 0.052-0.019 0.074-0.034 0.089s-0.038 0.027-0.089 0.034c-0.054 0.007-0.126 0.007-0.234 0.007h-0.288c-0.036 0-0.068 0.024-0.078 0.058-0.029 0.098-0.069 0.192-0.117 0.281-0.017 0.032-0.011 0.071 0.014 0.096l0.203 0.204c0.076 0.076 0.127 0.127 0.16 0.171 0.032 0.042 0.039 0.066 0.039 0.087s-0.007 0.046-0.039 0.087c-0.033 0.043-0.084 0.095-0.16 0.171s-0.127 0.127-0.171 0.16c-0.041 0.032-0.066 0.039-0.087 0.039s-0.046-0.007-0.087-0.039c-0.043-0.033-0.095-0.084-0.171-0.16l-0.204-0.203c-0.025-0.025-0.065-0.031-0.096-0.014-0.089 0.048-0.183 0.087-0.281 0.117-0.034 0.010-0.058 0.042-0.058 0.078v0.288c0 0.107-0 0.18-0.007 0.234-0.007 0.052-0.019 0.074-0.034 0.089s-0.038 0.027-0.089 0.034c-0.054 0.007-0.126 0.007-0.234 0.007s-0.18-0-0.234-0.007c-0.052-0.007-0.074-0.019-0.089-0.034s-0.027-0.038-0.034-0.089c-0.007-0.054-0.007-0.126-0.007-0.234v-0.288c0-0.036-0.024-0.068-0.058-0.078-0.098-0.029-0.192-0.069-0.281-0.117-0.032-0.017-0.071-0.011-0.096 0.014l-0.204 0.203c-0.076 0.076-0.127 0.127-0.171 0.16-0.041 0.032-0.066 0.039-0.087 0.039s-0.046-0.007-0.087-0.039c-0.043-0.033-0.095-0.084-0.171-0.16s-0.127-0.127-0.16-0.171c-0.032-0.041-0.039-0.066-0.039-0.087s0.007-0.046 0.039-0.087c0.033-0.043 0.084-0.095 0.16-0.171l0.203-0.203c0.025-0.025 0.031-0.065 0.014-0.096-0.048-0.089-0.087-0.183-0.117-0.281-0.010-0.034-0.042-0.058-0.078-0.058h-0.288c-0.107 0-0.18-0-0.234-0.007-0.052-0.007-0.074-0.019-0.089-0.034s-0.027-0.038-0.034-0.089c-0.007-0.054-0.007-0.126-0.007-0.234s0-0.18 0.007-0.234c0.007-0.052 0.019-0.074 0.034-0.089s0.038-0.027 0.089-0.034c0.054-0.007 0.126-0.007 0.234-0.007h0.288c0.036 0 0.068-0.024 0.078-0.058 0.029-0.098 0.069-0.192 0.117-0.281 0.017-0.032 0.011-0.071-0.014-0.096l-0.204-0.203c-0.076-0.076-0.127-0.127-0.16-0.171-0.001-0.001-0.002-0.003-0.003-0.004s-0.002-0.002-0.003-0.004c-0.027-0.037-0.033-0.060-0.033-0.080 0-0.021 0.007-0.046 0.039-0.087 0.033-0.043 0.084-0.095 0.16-0.171s0.127-0.127 0.171-0.16c0.041-0.032 0.066-0.039 0.087-0.039s0.046 0.007 0.087 0.039c0.003 0.003 0.007 0.005 0.010 0.008 0.041 0.033 0.091 0.082 0.161 0.152l0.203 0.203c0.025 0.025 0.065 0.031 0.096 0.014 0.089-0.048 0.183-0.087 0.281-0.117 0.034-0.010 0.058-0.042 0.058-0.078v-0.288c0-0.107 0-0.18 0.007-0.234 0.007-0.052 0.019-0.074 0.034-0.089s0.038-0.027 0.089-0.034zM10.613 5.345c-0.010 0.001-0.020 0.002-0.030 0.003-0.070 0.009-0.132 0.030-0.183 0.080s-0.071 0.113-0.080 0.183c-0.009 0.066-0.009 0.15-0.009 0.25v0.011c0 0.1 0 0.184 0.009 0.25 0.009 0.070 0.030 0.132 0.080 0.183s0.113 0.071 0.183 0.080c0.066 0.009 0.149 0.009 0.25 0.009v0h0.234c0.023 0.069 0.051 0.136 0.083 0.2l-0.166 0.166c-0.071 0.071-0.13 0.13-0.17 0.183-0.043 0.056-0.072 0.115-0.072 0.186s0.030 0.13 0.072 0.186c0.040 0.053 0.099 0.112 0.17 0.183v0 0l0.008 0.008v0c0.071 0.071 0.13 0.13 0.183 0.17 0.056 0.043 0.115 0.072 0.186 0.072s0.13-0.030 0.186-0.072c0.053-0.040 0.112-0.099 0.183-0.17l0.165-0.165c0.064 0.032 0.131 0.060 0.2 0.083v0.234c0 0.1 0 0.184 0.009 0.25 0.009 0.070 0.030 0.132 0.080 0.183s0.113 0.071 0.183 0.080c0.066 0.009 0.15 0.009 0.25 0.009h0.011c0.1 0 0.184 0 0.25-0.009 0.070-0.009 0.132-0.030 0.183-0.080s0.071-0.113 0.080-0.183c0.009-0.066 0.009-0.149 0.009-0.25v0 0-0.234c0.069-0.023 0.136-0.051 0.2-0.083l0.165 0.165c0.071 0.071 0.13 0.13 0.183 0.17 0.056 0.043 0.115 0.072 0.186 0.072s0.13-0.030 0.186-0.072c0.053-0.040 0.112-0.099 0.183-0.17l0-0 0.008-0.008c0.071-0.071 0.13-0.13 0.17-0.183 0.043-0.056 0.072-0.115 0.072-0.186s-0.030-0.13-0.072-0.186c-0.040-0.053-0.099-0.112-0.17-0.183l-0.166-0.166c0.032-0.064 0.060-0.131 0.083-0.2h0.234c0.1 0 0.184 0 0.25-0.009 0.070-0.009 0.132-0.030 0.183-0.080s0.071-0.113 0.080-0.183c0.009-0.066 0.009-0.15 0.009-0.25v0-0.011c0-0.1 0-0.184-0.009-0.25-0.009-0.070-0.030-0.132-0.080-0.183s-0.113-0.071-0.183-0.080c-0.066-0.009-0.15-0.009-0.25-0.009h-0.234c-0.023-0.069-0.051-0.136-0.083-0.2l0.165-0.165c0.071-0.071 0.13-0.13 0.171-0.183 0.043-0.056 0.072-0.115 0.072-0.186s-0.030-0.13-0.072-0.186c-0.040-0.053-0.1-0.112-0.17-0.183h-0l-0.008-0.008c-0.071-0.071-0.13-0.13-0.183-0.17-0.056-0.043-0.115-0.072-0.186-0.072s-0.13 0.030-0.186 0.072c-0.053 0.040-0.112 0.099-0.183 0.17l-0.165 0.165c-0.064-0.032-0.131-0.060-0.2-0.083v-0.234c0-0.1 0-0.184-0.009-0.25-0.009-0.070-0.030-0.132-0.080-0.183s-0.113-0.071-0.183-0.080c-0.066-0.009-0.15-0.009-0.25-0.009h-0.011c-0.1 0-0.184 0-0.25 0.009-0.070 0.009-0.132 0.030-0.183 0.080s-0.071 0.113-0.080 0.183c-0.004 0.028-0.006 0.059-0.007 0.094-0.002 0.046-0.002 0.098-0.002 0.156v0.234c-0.069 0.023-0.136 0.051-0.2 0.083l-0.165-0.165c-0.039-0.039-0.074-0.074-0.106-0.104-0.027-0.025-0.052-0.048-0.077-0.066-0.056-0.043-0.115-0.072-0.186-0.072s-0.13 0.030-0.186 0.072c-0.053 0.040-0.112 0.099-0.183 0.17l-0.004 0.004-0.004 0.004c-0.071 0.071-0.13 0.13-0.17 0.183-0.043 0.056-0.072 0.115-0.072 0.186s0.030 0.13 0.072 0.186c0.013 0.017 0.028 0.035 0.045 0.053 0.035 0.039 0.078 0.081 0.126 0.129v0l0.165 0.165c-0.032 0.064-0.060 0.131-0.083 0.2h-0.234c-0.086 0-0.159 0-0.22 0.006zM12.057 5.867c0-0.312 0.253-0.565 0.565-0.565s0.565 0.253 0.565 0.565c0 0.312-0.253 0.565-0.565 0.565s-0.565-0.253-0.565-0.565zM12.622 5.139c-0.402 0-0.727 0.326-0.727 0.727s0.326 0.727 0.727 0.727c0.402 0 0.727-0.326 0.727-0.727s-0.326-0.727-0.727-0.727zM41.396 11.202v9.323h3.12v-9.323h-3.12zM41.040 10.846h3.831v10.034h-3.831v-10.034zM40.046 11.931v8.593h-3.12v-8.593h3.12zM36.926 11.576h-0.356v9.305h3.831v-9.305h-3.476zM32.456 14.303v6.222h3.12v-6.222h-3.12zM32.1 13.948h3.831v6.933h-3.831v-6.933zM27.986 16.31v4.215h3.12v-4.215h-3.12zM27.631 15.954h3.831v4.926h-3.831v-4.926zM27.624 21.569h17.11v0.356h-17.11v-0.356z"></path>
</symbol>
<symbol id="icon-spread" viewBox="0 0 48 32">
<path   d="M10.849 0.645c0.327-0.327 0.856-0.327 1.182 0l2.775 2.775c0.327 0.326 0.327 0.856 0 1.182s-0.856 0.327-1.182 0l-1.348-1.348v5.101c5.886 0.342 10.553 5.224 10.553 11.196 0 6.194-5.021 11.215-11.215 11.215s-11.215-5.021-11.215-11.215c0-5.853 4.484-10.659 10.204-11.17v-5.127l-1.348 1.348c-0.327 0.327-0.856 0.327-1.182 0s-0.327-0.856 0-1.182l2.775-2.775zM11.466 1.211c-0.014-0.014-0.037-0.014-0.051 0l-2.775 2.775c-0.014 0.014-0.014 0.037 0 0.051s0.037 0.014 0.051 0l2.714-2.714v7.809l-0.378 0.021c-5.478 0.305-9.827 4.844-9.827 10.399 0 5.752 4.663 10.415 10.415 10.415s10.415-4.663 10.415-10.415c0-5.668-4.527-10.278-10.163-10.412l-0.39-0.009v-7.807l2.714 2.714c0.014 0.014 0.037 0.014 0.051 0s0.014-0.037 0-0.051l-2.775-2.775zM25.17 12.574c0-6.194 5.021-11.215 11.215-11.215s11.215 5.021 11.215 11.215c0 5.853-4.484 10.659-10.204 11.17v5.127l1.348-1.348c0.327-0.326 0.856-0.326 1.182 0s0.327 0.856 0 1.182l-2.775 2.775c-0.327 0.326-0.856 0.326-1.182 0l-2.775-2.775c-0.327-0.326-0.327-0.856 0-1.182s0.856-0.326 1.182 0l1.348 1.348v-5.102c-5.886-0.342-10.553-5.224-10.553-11.196zM36.385 2.159c-5.752 0-10.415 4.663-10.415 10.415 0 5.668 4.527 10.278 10.163 10.412l0.39 0.009v7.807l-2.714-2.714c-0.014-0.014-0.037-0.014-0.051 0s-0.014 0.037 0 0.051l2.775 2.775c0.014 0.014 0.037 0.014 0.051 0l2.775-2.775c0.014-0.014 0.014-0.037 0-0.051s-0.037-0.014-0.051 0l-2.714 2.714v-7.809l0.378-0.021c5.478-0.305 9.827-4.844 9.827-10.399 0-5.752-4.663-10.415-10.415-10.415zM36.385 3.032c-5.27 0-9.543 4.272-9.543 9.543s4.272 9.543 9.543 9.543 9.543-4.272 9.543-9.543c0-5.27-4.272-9.543-9.543-9.543zM26.042 12.574c0-5.712 4.631-10.343 10.343-10.343s10.343 4.631 10.343 10.343c0 5.712-4.631 10.343-10.343 10.343s-10.343-4.631-10.343-10.343zM11.615 10.009c-5.27 0-9.543 4.272-9.543 9.543s4.272 9.543 9.543 9.543 9.543-4.272 9.543-9.543c0-5.27-4.272-9.543-9.543-9.543zM1.272 19.552c0-5.712 4.631-10.343 10.343-10.343s10.343 4.631 10.343 10.343c0 5.712-4.631 10.343-10.343 10.343s-10.343-4.631-10.343-10.343z"></path>
</symbol>
<symbol id="icon-visa" viewBox="0 0 59 32">
<path fill="#fff" style="fill: var(--color1, #fff)" d="M3.113 6.050c0-1.583 1.254-2.866 2.802-2.866h47.321c1.547 0 2.802 1.283 2.802 2.866v5.382h-52.925v-5.382zM3.113 14.617h52.925v11.333c0 1.583-1.255 2.866-2.802 2.866h-47.321c-1.547 0-2.802-1.283-2.802-2.866v-11.333zM5.915 0c-3.267 0-5.915 2.709-5.915 6.050v19.9c0 3.341 2.648 6.050 5.915 6.050h47.321c3.267 0 5.915-2.709 5.915-6.050v-19.9c0-3.341-2.648-6.050-5.915-6.050h-47.321zM5.691 19.785v-3.184h6.278v3.184h-6.278zM17.174 19.785v-3.184h5.971v3.184h-5.971zM28.045 19.785v-3.184h7.962v3.184h-7.962z"></path>
</symbol>
<symbol id="icon-zero-commissions" viewBox="0 0 31 32">
<path   d="M15.687 1.235c-0.125-0.159-0.365-0.159-0.49 0l-2.622 3.335c-0.358 0.455-0.955 0.649-1.512 0.491h-0l-4.082-1.157c-0.194-0.055-0.389 0.086-0.396 0.288v0l-0.161 4.24c-0.022 0.578-0.391 1.086-0.934 1.286v0l-3.982 1.463c-0.189 0.070-0.264 0.298-0.151 0.466l2.362 3.524c0.322 0.481 0.322 1.109 0 1.59l-0 0-2.362 3.524c-0.112 0.168-0.038 0.396 0.151 0.466h0l3.982 1.463c0.543 0.2 0.912 0.708 0.934 1.286v0l0.161 4.239c0.008 0.202 0.202 0.343 0.396 0.288l0-0 4.082-1.157c0.557-0.158 1.154 0.036 1.512 0.491h0l2.622 3.335c0.125 0.159 0.365 0.159 0.49-0l2.622-3.335c0.358-0.455 0.955-0.649 1.512-0.491l0 0 4.082 1.157c0.194 0.055 0.389-0.086 0.396-0.288v-0l0.161-4.24c0.022-0.578 0.391-1.086 0.935-1.286l3.982-1.463c0.19-0.070 0.264-0.298 0.151-0.466l-0-0-2.362-3.524c-0.322-0.481-0.322-1.109 0-1.59v-0l2.362-3.524c0.112-0.168 0.038-0.396-0.151-0.466l-3.982-1.463c-0.544-0.2-0.912-0.708-0.935-1.286v-0l-0.161-4.24c-0.008-0.202-0.202-0.343-0.396-0.288h-0l-4.082 1.157c-0.557 0.158-1.154-0.036-1.512-0.491l-0-0-2.622-3.335zM14.319 0.545c0.572-0.727 1.673-0.727 2.245 0l0 0 2.622 3.335c0.078 0.099 0.209 0.142 0.33 0.107l4.082-1.157c0.89-0.252 1.781 0.395 1.816 1.32v0l0.161 4.239c0.005 0.126 0.085 0.237 0.204 0.281h0l3.982 1.463c0.868 0.319 1.209 1.367 0.694 2.135l-0 0-2.361 3.524c-0.070 0.105-0.070 0.242 0 0.347l2.361 3.524c0.515 0.769 0.174 1.816-0.694 2.135l-0 0-3.982 1.463c-0.119 0.044-0.199 0.154-0.204 0.281v0l-0.161 4.239c-0.035 0.924-0.926 1.572-1.816 1.32l-4.082-1.157c-0.121-0.034-0.252 0.008-0.33 0.107l-0 0-2.622 3.335c-0.572 0.727-1.673 0.727-2.245 0l-0-0-2.622-3.335c-0.078-0.099-0.208-0.142-0.33-0.107l-0 0-4.082 1.157c-0.89 0.252-1.781-0.395-1.816-1.32l-0.161-4.239c-0.005-0.126-0.085-0.237-0.204-0.281l-3.982-1.463c-0.868-0.319-1.209-1.367-0.694-2.135v0l2.362-3.524c0.070-0.105 0.070-0.242-0-0.347l-2.362-3.524c-0.515-0.768-0.174-1.816 0.694-2.135l3.982-1.463c0.119-0.044 0.199-0.154 0.204-0.281l0.161-4.239c0.035-0.924 0.926-1.572 1.816-1.32v0l4.082 1.157c0.122 0.034 0.252-0.008 0.33-0.107v0l2.622-3.335zM8.66 13.146c0-2.956 2.397-5.353 5.353-5.353s5.353 2.397 5.353 5.353v0.476h-1.86v-0.476c0-1.929-1.564-3.493-3.493-3.493s-3.493 1.564-3.493 3.493v5.444c0 1.929 1.564 3.493 3.493 3.493h1.689c0.996 0 1.804-0.808 1.804-1.804h1.86c0 2.024-1.64 3.664-3.664 3.664h-1.689c-2.956 0-5.353-2.397-5.353-5.353v-5.444zM16.714 15.503v0.28c0 0.196 0.044 0.377 0.131 0.541s0.216 0.297 0.385 0.396c0.172 0.099 0.384 0.149 0.636 0.149 0.25 0 0.459-0.050 0.629-0.149s0.297-0.231 0.382-0.396c0.087-0.165 0.131-0.345 0.131-0.541v-0.28c0-0.201-0.044-0.384-0.131-0.549-0.085-0.165-0.213-0.297-0.385-0.396-0.17-0.099-0.382-0.149-0.636-0.149-0.247 0-0.455 0.050-0.625 0.149s-0.298 0.231-0.385 0.396-0.131 0.348-0.131 0.549zM17.408 15.783v-0.28c0-0.090 0.016-0.172 0.047-0.247 0.034-0.078 0.085-0.139 0.153-0.185 0.068-0.048 0.15-0.073 0.247-0.073 0.104 0 0.189 0.024 0.254 0.073 0.068 0.046 0.117 0.108 0.149 0.185 0.034 0.075 0.051 0.157 0.051 0.247v0.28c0 0.085-0.016 0.166-0.047 0.243-0.031 0.075-0.080 0.137-0.145 0.185-0.065 0.046-0.15 0.069-0.254 0.069-0.099 0-0.184-0.023-0.254-0.069-0.068-0.048-0.119-0.11-0.153-0.185-0.031-0.078-0.047-0.159-0.047-0.243zM19.243 18.479v0.28c0 0.199 0.044 0.38 0.131 0.545 0.090 0.165 0.22 0.297 0.392 0.396s0.384 0.149 0.636 0.149c0.25 0 0.459-0.050 0.629-0.149s0.297-0.231 0.382-0.396c0.087-0.165 0.131-0.346 0.131-0.545v-0.28c0-0.199-0.044-0.38-0.131-0.545s-0.216-0.297-0.385-0.396c-0.17-0.099-0.38-0.149-0.632-0.149-0.25 0-0.46 0.050-0.632 0.149-0.17 0.099-0.299 0.231-0.389 0.396-0.087 0.165-0.131 0.346-0.131 0.545zM19.941 18.759v-0.28c0-0.087 0.017-0.168 0.051-0.243 0.034-0.078 0.084-0.139 0.149-0.185 0.068-0.048 0.153-0.073 0.254-0.073s0.185 0.024 0.251 0.073c0.068 0.046 0.119 0.108 0.153 0.185 0.034 0.075 0.051 0.156 0.051 0.243v0.28c0 0.087-0.013 0.17-0.040 0.247-0.024 0.078-0.069 0.139-0.134 0.185s-0.156 0.069-0.273 0.069c-0.092 0-0.173-0.023-0.243-0.069-0.068-0.046-0.121-0.108-0.16-0.185s-0.058-0.16-0.058-0.247zM18.070 19.376l2.584-4.135-0.509-0.269-2.584 4.135 0.509 0.269z"></path>
</symbol>
</defs>
</svg>
