<svg width="69" height="156" viewBox="0 0 69 156" fill="none" xmlns="http://www.w3.org/2000/svg">
<path fill-rule="evenodd" clip-rule="evenodd" d="M20.8477 148.08C22.5365 149.006 31.9652 155.655 31.9656 155.92C31.9661 156.192 25.7106 155.716 23.7159 155.293C20.8842 154.691 17.1853 152.911 15.6735 151.423C15.0469 150.807 14.0369 149.46 13.4291 148.432L12.7517 147.285C12.2216 147.311 11.6894 147.323 11.1552 147.323C4.70271 148.08 2.5946 148.801 1.05406 151.209L3.08454e-06 150.406C1.37838 147.323 4.94595 145.044 11.2325 145.365C12.2225 145.261 13.2088 145.158 14.1831 145.044L13.9106 145.049L14.4083 143.323C15.583 139.251 17.4572 137.08 21.5325 135.072C22.7578 134.469 24.3866 133.512 25.1522 132.946L26.544 131.918L26.3214 132.998C25.6283 136.363 22.1438 142.304 19.9671 144.098C21.0759 143.839 22.1391 143.525 23.1403 143.136C24.292 142.707 25.4299 142.209 26.5515 141.644C26.5034 141.318 26.5115 140.858 26.5591 140.245C26.8378 136.663 27.7513 134.744 32.2301 128.331L36.5703 122.116L36.3707 124.13C36.2611 125.237 35.807 127.841 35.3617 129.917C34.6294 133.33 33.5416 136.105 32.1207 138.206C34.3241 136.584 36.4395 134.7 38.4455 132.586L38.28 131.61C37.6622 127.968 38.9196 121.5 41.1733 116.727C41.6374 115.744 42.547 113.47 43.1946 111.673L44.3723 108.405L44.4743 114.473C44.5315 117.873 44.4152 121.618 44.2101 122.989C44.0056 124.355 43.4857 125.926 42.7784 127.435C44.835 124.687 46.7327 121.677 48.4411 118.449C48.26 118.632 48.1224 118.714 48.0595 118.658C47.5051 118.161 46.7893 113.571 46.7934 110.537C46.7959 108.616 47.2168 105.03 47.9199 100.936C48.5372 97.3415 49.0552 93.7705 49.0708 93.0004C49.099 91.619 49.1077 91.6263 49.7196 93.5529C50.4467 95.8425 51.623 103.746 51.623 106.342C51.623 107.334 51.3832 109.726 51.09 111.659C50.9635 112.493 50.8373 113.195 50.698 113.808C52.032 110.816 53.2104 107.672 54.2126 104.406C58.4249 91.0296 59.4387 75.6389 57.4237 61.208C57.4237 61.2156 57.4237 61.2233 57.4237 61.2309C57.4237 62.7288 57.3508 62.7217 55.7093 61.0654C53.6486 58.9856 51.5413 55.6161 49.4072 50.9879C48.3418 48.6772 47.0128 45.999 46.4539 45.0363C45.895 44.0733 45.5155 43.2858 45.6105 43.2858C46.2448 43.2858 51.8948 47.949 53.0586 49.4332C54.6167 51.4197 55.8051 53.6609 56.5455 55.9453C55.7884 52.0573 54.8042 48.2693 53.5964 44.643C53.5294 44.6711 53.4433 44.6824 53.3366 44.6816C51.8338 44.6699 46.5694 40.0729 43.8715 36.4164C43.2415 35.5628 41.9582 34.0282 41.0194 33.0065C39.1161 30.9348 39.3418 30.7653 42.5457 31.8595C46.0102 33.0425 49.1253 35.431 51.2206 38.3165C49.9445 35.2906 48.5016 32.4263 46.9166 29.7442L46.0983 29.7402C43.4275 29.7276 40.4298 28.6165 37.6049 26.592C36.187 25.5759 34.3301 24.3669 33.4784 23.9056C31.403 22.7812 32.0317 22.2958 35.575 22.2866C39.0785 22.2777 41.4801 22.9272 43.5486 24.6074C42.016 22.4975 40.3885 20.5356 38.6823 18.7352C38.6688 18.7804 38.6485 18.8229 38.6212 18.8624C38.5093 19.0245 37.8723 19.3104 37.2057 19.4977C35.2539 20.0459 33.0094 19.9734 29.2263 19.24C27.2766 18.8621 25.1377 18.551 24.473 18.5489C23.8083 18.5469 23.2646 18.3784 23.2646 18.1745C23.2646 17.9707 24.5335 17.1902 26.0843 16.44C29.6316 14.7243 33.4342 14.5499 36.0115 15.9547C34.0665 13.8838 32.559 12.2494 31.4187 10.9831C31.2925 11.0658 31.0827 11.0763 30.7605 11.0763C28.3639 11.0763 26.4757 9.70431 24.0641 6.21103C21.5538 2.57468 20.0865 -0.58042 21.2179 0.0906774C21.546 0.285334 22.8295 0.823908 24.0702 1.28728C29.1332 3.17837 30.7969 5.03827 31.4689 9.55917C31.4717 9.57853 31.4746 9.59764 31.4774 9.61651C33.4169 11.33 35.8342 13.5869 37.3386 15.0343C37.2771 14.9479 37.2173 14.8619 37.1593 14.7766C35.2917 12.0283 34.3832 9.54955 33.5747 4.99608L33 1.75982L33.6911 2.28762C34.0714 2.57812 35.239 3.65412 36.2859 4.67899C40.3667 8.6737 42.4795 13.7238 41.7739 17.7958C41.6582 18.4646 41.5007 19.0119 41.4243 19.0119C41.3122 19.0119 41.1486 18.941 40.9477 18.8137C46.4603 25.1587 51.0257 33.2189 54.2737 42.4516C53.7547 40.4426 53.4484 38.0637 53.4459 35.7418C53.443 32.924 53.6731 31.1505 54.5316 27.3784L55.6209 22.5913L56.539 26.52C59.0061 37.0774 59.0869 40.4069 57.0001 45.5304L56.34 47.1507L55.6219 45.9413C55.4372 45.6303 55.2612 45.281 55.0951 44.8994C56.3661 48.8764 57.3973 53.0534 58.1608 57.3898C58.1848 56.5256 58.2638 55.698 58.3968 54.8838C58.8612 52.0414 60.1335 47.6329 60.7963 46.5692C61.0417 46.1754 61.7373 44.6619 62.342 43.206C63.411 40.6325 63.4418 40.6 63.4495 42.0389C63.4539 42.8531 63.5702 45.8452 63.7081 48.6882C64.113 57.0372 63.0858 62.0707 60.5137 64.3427C59.7948 64.9778 59.4431 65.2628 59.2123 65.0714C59.5482 68.477 59.7221 71.9601 59.7221 75.5032C59.7221 75.8925 59.72 76.2811 59.7158 76.669C60.5371 73.5228 63.7677 66.6192 65.068 65.3153C65.5012 64.8808 66.3788 63.8951 67.0184 63.1247C67.9105 62.0503 68.1274 61.9307 67.9502 62.6109C67.8232 63.0984 67.5011 65.409 67.2345 67.7458C66.2864 76.0542 64.6227 80.8041 61.676 83.6153C60.7057 84.5407 59.7146 85.298 59.4734 85.298C59.4033 85.298 59.3417 85.2411 59.2885 85.1355C58.9297 89.0882 58.3533 92.9394 57.5777 96.6618C58.6016 94.3131 59.8748 92.2408 61.0662 91.1932C61.6878 90.6466 63.044 89.3466 64.0799 88.3038C65.1159 87.2613 66.6467 85.8393 67.4817 85.1439L69 83.8795L67.0792 89.4968C66.0228 92.5863 64.6492 96.2249 64.0268 97.5827C62.6471 100.593 60.3334 103.225 58.0232 104.414C56.0924 105.407 55.566 105.625 55.5286 104.727C54.2307 109.027 52.6554 113.104 50.8362 116.908C51.5536 115.822 52.2912 114.838 52.8965 114.203C54.9238 112.075 58.5272 109.69 60.6077 109.097C61.6037 108.814 62.9654 108.279 63.6336 107.91C65.3438 106.964 65.4081 107.044 64.3166 108.755C63.7843 109.589 62.7073 111.51 61.9232 113.022C60.4669 115.831 57.1525 119.989 55.208 121.445C54.6122 121.891 53.2356 122.542 52.1488 122.89C51.0621 123.238 49.8829 123.433 49.5284 123.322C49.1739 123.212 48.6264 123.119 48.3117 123.116C47.8399 123.11 47.785 123.023 48.0956 122.117C40.4643 135.327 29.6515 144.4 17.4166 146.731C18.6299 147.071 19.8714 147.544 20.8477 148.08ZM45.1292 145.782C44.3585 146.094 42.2776 146.986 40.5052 147.765C34.9228 150.218 28.8988 149.507 26.1848 146.075L25.1488 144.764L25.9785 144.217C29.0823 142.168 33.8805 141.766 38.6708 143.152C40.3888 143.649 42.8599 144.316 44.1624 144.635L46.5305 145.215L45.1292 145.782ZM54.2055 131.72C50.6539 135.277 49.6933 135.968 45.9837 137.636C43.7656 138.633 40.4248 138.498 38.5025 137.335L37.3458 136.635L38.6032 135.035C39.2948 134.156 40.8034 132.771 41.9554 131.958C43.1074 131.145 44.2784 130.313 44.5576 130.109C45.5755 129.366 57.1959 127.531 57.6828 128.037C57.7367 128.093 56.1719 129.75 54.2055 131.72ZM55.8101 87.0309C56.659 91.0121 56.6484 95.2581 55.7811 98.6158C55.1161 101.191 55.0951 101.219 54.4578 100.384C53.67 99.3518 52.6957 96.655 52.0631 93.7558C51.6924 92.0567 51.0485 81.1618 50.9976 75.7286C50.9822 74.0757 55.1197 83.793 55.8101 87.0309ZM57.9299 74.0482C58.2851 76.0787 58.3836 77.8364 58.2372 79.5333C58.1187 80.9066 57.9156 82.0303 57.7859 82.0303C57.4957 82.0303 54.5458 76.3422 53.6559 74.0666C53.0766 72.5854 52.0959 68.5426 50.5271 61.1699C50.2437 59.838 50.0118 58.641 50.0118 58.5101C50.0118 58.3791 51.319 60.084 52.9166 62.2989C56.0522 66.646 57.0398 68.9603 57.9299 74.0482ZM50.196 19.317C51.1171 21.9936 51.4031 25.9099 50.9155 29.165C50.7521 30.2561 50.4725 31.1487 50.2941 31.1487C50.1156 31.1487 49.2021 30.0459 48.2642 28.6982C45.6433 24.9325 44.5122 19.3753 45.0063 12.6923L45.2316 9.64561L47.2999 13.2785C48.4375 15.2765 49.7408 17.9939 50.196 19.317Z" fill="#42A5F5"/>
</svg>
