<svg width="73" height="165" viewBox="0 0 73 165" fill="none" xmlns="http://www.w3.org/2000/svg">
<path opacity="0.5" fill-rule="evenodd" clip-rule="evenodd" d="M50.548 155.724C48.8103 156.693 39.1082 163.64 39.1079 163.916C39.1074 164.201 45.5441 163.704 47.5967 163.261C50.5104 162.632 54.3166 160.773 55.8722 159.218C56.517 158.574 57.5562 157.167 58.1816 156.092L58.8787 154.894C59.4242 154.921 59.9718 154.934 60.5215 154.934C67.161 155.724 69.3302 156.478 70.9154 158.994L72 158.155C70.5817 154.934 66.9107 152.552 60.4419 152.887C59.4232 152.779 58.4083 152.671 57.4058 152.552L57.6862 152.557L57.1741 150.755C55.9653 146.499 54.0368 144.231 49.8433 142.133C48.5825 141.502 46.9065 140.503 46.1188 139.911L44.6866 138.837L44.9157 139.966C45.6289 143.482 49.2144 149.689 51.4542 151.564C50.3132 151.293 49.2192 150.966 48.189 150.558C47.0039 150.111 45.833 149.59 44.6789 149C44.7284 148.659 44.7201 148.178 44.6711 147.538C44.3843 143.795 43.4443 141.79 38.8357 135.09L34.3697 128.596L34.5751 130.7C34.6879 131.857 35.1551 134.578 35.6133 136.746C36.3668 140.313 37.4861 143.213 38.9482 145.407C36.681 143.712 34.5043 141.744 32.4401 139.535L32.6104 138.516C33.2462 134.71 31.9523 127.952 29.6333 122.964C29.1557 121.938 28.2198 119.561 27.5533 117.683L26.3416 114.269L26.2366 120.61C26.1777 124.162 26.2974 128.075 26.5084 129.508C26.7188 130.935 27.2539 132.576 27.9816 134.153C25.8654 131.282 23.9127 128.137 22.1548 124.764C22.3412 124.956 22.4827 125.041 22.5475 124.982C23.118 124.463 23.8545 119.667 23.8503 116.497C23.8477 114.49 23.4146 110.743 22.6911 106.465C22.0559 102.709 21.5229 98.9782 21.5069 98.1734C21.4779 96.7301 21.4689 96.7377 20.8393 98.7508C20.0911 101.143 18.8807 109.402 18.8807 112.114C18.8807 113.15 19.1274 115.65 19.4291 117.67C19.5593 118.541 19.6891 119.274 19.8325 119.915C18.4598 116.788 17.2473 113.504 16.216 110.091C11.8816 96.1142 10.8384 80.033 12.9119 64.9545C12.9119 64.9625 12.9119 64.9705 12.9119 64.9784C12.9119 66.5435 12.9869 66.5361 14.6759 64.8055C16.7964 62.6324 18.9648 59.1117 21.1607 54.2758C22.2569 51.8615 23.6246 49.0631 24.1996 48.0572C24.7747 47.051 25.1652 46.2281 25.0674 46.2281C24.4148 46.2281 18.601 51.1006 17.4034 52.6513C15.8002 54.727 14.5774 57.0688 13.8155 59.4557C14.5945 55.3932 15.6073 51.4352 16.8501 47.6462C16.919 47.6756 17.0076 47.6874 17.1174 47.6865C18.6637 47.6743 24.0808 42.871 26.8568 39.0504C27.5051 38.1585 28.8257 36.5551 29.7916 35.4876C31.7501 33.3229 31.5178 33.1458 28.2211 34.289C24.6562 35.5252 21.4507 38.0209 19.2947 41.0358C20.6079 37.8742 22.0926 34.8813 23.7235 32.0788L24.5655 32.0747C27.3137 32.0616 30.3983 30.9006 33.3051 28.7853C34.7641 27.7235 36.6749 26.4603 37.5512 25.9783C39.6867 24.8034 39.0398 24.2963 35.3939 24.2867C31.7888 24.2773 29.3176 24.956 27.1891 26.7116C28.7661 24.507 30.4408 22.4571 32.1965 20.5759C32.2104 20.6231 32.2313 20.6675 32.2594 20.7088C32.3745 20.8781 33.0299 21.1769 33.7159 21.3726C35.7243 21.9454 38.0338 21.8697 41.9265 21.1033C43.9327 20.7085 46.1336 20.3834 46.8176 20.3813C47.5016 20.3791 48.0611 20.203 48.0611 19.9901C48.0611 19.7771 46.7554 18.9616 45.1597 18.1777C41.5095 16.385 37.5967 16.2027 34.9447 17.6706C36.9461 15.5068 38.4973 13.799 39.6706 12.4759C39.8005 12.5623 40.0164 12.5733 40.3479 12.5733C42.8139 12.5733 44.7569 11.1398 47.2384 7.48973C49.8215 3.69021 51.3312 0.393535 50.167 1.09475C49.8295 1.29814 48.5088 1.86088 47.2321 2.34504C42.0223 4.32099 40.3105 6.26435 39.619 10.9881C39.616 11.0083 39.6131 11.0283 39.6103 11.048C37.6145 12.8384 35.1272 15.1966 33.5791 16.7089C33.6424 16.6186 33.704 16.5288 33.7636 16.4397C35.6854 13.568 36.6201 10.9781 37.4521 6.22027L38.0435 2.83879L37.3323 3.39027C36.941 3.6938 35.7396 4.81809 34.6623 5.88895C30.4632 10.0629 28.2892 15.3396 29.0152 19.5943C29.1344 20.2931 29.2964 20.865 29.375 20.865C29.4903 20.865 29.6587 20.791 29.8654 20.6579C24.193 27.2877 19.4953 35.7095 16.1531 45.3565C16.6872 43.2573 17.0024 40.7716 17.005 38.3456C17.008 35.4014 16.7712 33.5483 15.8878 29.607L14.7669 24.6051L13.8222 28.71C11.2836 39.7411 11.2005 43.2201 13.3478 48.5734L14.0269 50.2664L14.7659 49.0027C14.9559 48.6778 15.137 48.3129 15.3079 47.9141C14.0001 52.0696 12.939 56.434 12.1533 60.965C12.1287 60.062 12.0474 59.1973 11.9105 58.3465C11.4326 55.3766 10.1235 50.7702 9.44151 49.6589C9.189 49.2473 8.47324 47.6659 7.85097 46.1447C6.75105 43.4558 6.71933 43.4218 6.71139 44.9253C6.70688 45.776 6.58714 48.9023 6.44527 51.873C6.0287 60.5965 7.08564 65.856 9.7323 68.2298C10.4721 68.8934 10.8339 69.1912 11.0714 68.9913C10.7258 72.5497 10.5468 76.1891 10.5468 79.8912C10.5468 80.298 10.549 80.704 10.5533 81.1093C9.70824 77.8219 6.38397 70.6085 5.04602 69.2461C4.60026 68.7921 3.69713 67.7622 3.03908 66.9573C2.12108 65.8346 1.89792 65.7096 2.08025 66.4204C2.21095 66.9297 2.54236 69.3441 2.81672 71.7857C3.79224 80.4669 5.50422 85.43 8.53633 88.3673C9.53467 89.3342 10.5545 90.1255 10.8027 90.1255C10.8749 90.1255 10.9383 90.0661 10.993 89.9557C11.3622 94.0858 11.9553 98.1098 12.7534 101.999C11.6998 99.5451 10.3897 97.3798 9.16375 96.2852C8.52413 95.7141 7.12866 94.3557 6.06269 93.2662C4.99672 92.1769 3.42154 90.6911 2.56228 89.9645L1 88.6433L2.97649 94.5126C4.06355 97.7408 5.47692 101.543 6.11731 102.961C7.53706 106.107 9.91779 108.857 12.295 110.099C14.2818 111.137 14.8234 111.364 14.8619 110.426C16.1974 114.919 17.8184 119.179 19.6903 123.154C18.9521 122.019 18.1931 120.991 17.5703 120.327C15.4842 118.104 11.7763 115.611 9.6356 114.993C8.6107 114.696 7.20954 114.138 6.52193 113.752C4.7622 112.764 4.69599 112.847 5.81919 114.635C6.36683 115.507 7.47507 117.513 8.28196 119.094C9.78042 122.029 13.1909 126.373 15.1917 127.895C15.8049 128.361 17.2214 129.04 18.3397 129.404C19.4578 129.768 20.6713 129.971 21.036 129.856C21.4008 129.741 21.9641 129.644 22.288 129.64C22.7734 129.634 22.83 129.543 22.5103 128.597C30.3628 142.4 41.4891 151.879 54.0786 154.315C52.8301 154.67 51.5526 155.164 50.548 155.724ZM25.5627 153.324C26.3558 153.649 28.4969 154.582 30.3207 155.396C36.065 157.959 42.2636 157.216 45.0562 153.63L46.1223 152.26L45.2685 151.688C42.0747 149.548 37.1374 149.127 32.2083 150.575C30.4406 151.095 27.8977 151.792 26.5575 152.125L24.1208 152.731L25.5627 153.324ZM16.2234 138.63C19.8778 142.347 20.8663 143.069 24.6835 144.812C26.9658 145.853 30.4035 145.713 32.3815 144.497L33.5717 143.766L32.2779 142.095C31.5662 141.175 30.0139 139.728 28.8285 138.879C27.6431 138.03 26.4382 137.16 26.1509 136.947C25.1035 136.171 13.1462 134.254 12.6452 134.782C12.5898 134.841 14.1999 136.573 16.2234 138.63ZM14.5722 91.9361C13.6987 96.0959 13.7096 100.532 14.602 104.041C15.2864 106.731 15.308 106.76 15.9637 105.888C16.7743 104.81 17.7769 101.992 18.4278 98.9628C18.8092 97.1874 19.4718 85.8037 19.5242 80.1267C19.5401 78.3997 15.2826 88.553 14.5722 91.9361ZM12.391 78.3709C12.0255 80.4925 11.9242 82.329 12.0748 84.1021C12.1967 85.5371 12.4056 86.7112 12.5391 86.7112C12.8377 86.7112 15.8731 80.7678 16.7889 78.3901C17.3849 76.8425 18.3941 72.6182 20.0083 64.9147C20.3 63.5231 20.5386 62.2723 20.5386 62.1355C20.5386 61.9987 19.1935 63.7801 17.5496 66.0943C14.3231 70.6365 13.3069 73.0547 12.391 78.3709ZM20.349 21.1838C19.4013 23.9805 19.1069 28.0725 19.6087 31.4737C19.7769 32.6138 20.0645 33.5464 20.2481 33.5464C20.4318 33.5464 21.3717 32.3941 22.3369 30.9859C25.0337 27.0513 26.1976 21.2447 25.6891 14.2618L25.4574 11.0784L23.329 14.8744C22.1585 16.9619 20.8174 19.8013 20.349 21.1838Z" stroke="#9AA19A" stroke-linecap="round" stroke-linejoin="round"/>
</svg>
