<svg width="69" height="156" viewBox="0 0 69 156" fill="none" xmlns="http://www.w3.org/2000/svg">
<path fill-rule="evenodd" clip-rule="evenodd" d="M48.1523 148.08C46.4635 149.006 37.0348 155.655 37.0344 155.92C37.0339 156.192 43.2894 155.716 45.2841 155.293C48.1158 154.691 51.8147 152.911 53.3265 151.423C53.9531 150.807 54.9631 149.46 55.5709 148.432L56.2483 147.285C56.7784 147.311 57.3106 147.323 57.8448 147.323C64.2973 148.08 66.4054 148.801 67.9459 151.209L69 150.406C67.6216 147.323 64.0541 145.044 57.7675 145.365C56.7775 145.261 55.7912 145.158 54.8169 145.044L55.0894 145.049L54.5917 143.323C53.417 139.251 51.5428 137.08 47.4675 135.072C46.2422 134.469 44.6134 133.512 43.8478 132.946L42.456 131.918L42.6786 132.998C43.3717 136.363 46.8562 142.304 49.0329 144.098C47.9241 143.839 46.8609 143.525 45.8597 143.136C44.708 142.707 43.5701 142.209 42.4485 141.644C42.4966 141.318 42.4885 140.858 42.4409 140.245C42.1622 136.663 41.2487 134.744 36.7699 128.331L32.4297 122.116L32.6293 124.13C32.7389 125.237 33.193 127.841 33.6383 129.917C34.3706 133.33 35.4584 136.105 36.8793 138.206C34.6759 136.584 32.5605 134.7 30.5545 132.586L30.72 131.61C31.3378 127.968 30.0804 121.5 27.8267 116.727C27.3626 115.744 26.453 113.47 25.8054 111.673L24.6277 108.405L24.5257 114.473C24.4685 117.873 24.5848 121.618 24.7899 122.989C24.9944 124.355 25.5143 125.926 26.2216 127.435C24.165 124.687 22.2673 121.677 20.5589 118.449C20.74 118.632 20.8776 118.714 20.9405 118.658C21.4949 118.161 22.2107 113.571 22.2066 110.537C22.2041 108.616 21.7832 105.03 21.0801 100.936C20.4628 97.3415 19.9448 93.7705 19.9292 93.0004C19.901 91.619 19.8923 91.6263 19.2804 93.5529C18.5533 95.8425 17.377 103.746 17.377 106.342C17.377 107.334 17.6168 109.726 17.91 111.659C18.0365 112.493 18.1627 113.195 18.302 113.808C16.968 110.816 15.7896 107.672 14.7874 104.406C10.5751 91.0296 9.56129 75.6389 11.5763 61.208C11.5763 61.2156 11.5763 61.2233 11.5763 61.2309C11.5763 62.7288 11.6492 62.7217 13.2907 61.0654C15.3514 58.9856 17.4587 55.6161 19.5928 50.9879C20.6582 48.6772 21.9872 45.999 22.5461 45.0363C23.105 44.0733 23.4845 43.2858 23.3895 43.2858C22.7552 43.2858 17.1052 47.949 15.9414 49.4332C14.3833 51.4197 13.1949 53.6609 12.4545 55.9453C13.2116 52.0573 14.1958 48.2693 15.4036 44.643C15.4706 44.6711 15.5567 44.6824 15.6634 44.6816C17.1662 44.6699 22.4306 40.0729 25.1285 36.4164C25.7585 35.5628 27.0418 34.0282 27.9806 33.0065C29.8839 30.9348 29.6582 30.7653 26.4543 31.8595C22.9898 33.0425 19.8747 35.431 17.7794 38.3165C19.0555 35.2906 20.4984 32.4263 22.0834 29.7442L22.9017 29.7402C25.5725 29.7276 28.5702 28.6165 31.3951 26.592C32.813 25.5759 34.6699 24.3669 35.5216 23.9056C37.597 22.7812 36.9683 22.2958 33.425 22.2866C29.9215 22.2777 27.5199 22.9272 25.4514 24.6074C26.984 22.4975 28.6115 20.5356 30.3177 18.7352C30.3312 18.7804 30.3515 18.8229 30.3788 18.8624C30.4907 19.0245 31.1277 19.3104 31.7943 19.4977C33.7461 20.0459 35.9906 19.9734 39.7737 19.24C41.7234 18.8621 43.8623 18.551 44.527 18.5489C45.1917 18.5469 45.7354 18.3784 45.7354 18.1745C45.7354 17.9707 44.4665 17.1902 42.9157 16.44C39.3684 14.7243 35.5658 14.5499 32.9885 15.9547C34.9335 13.8838 36.441 12.2494 37.5813 10.9831C37.7075 11.0658 37.9173 11.0763 38.2395 11.0763C40.6361 11.0763 42.5243 9.70431 44.9359 6.21103C47.4462 2.57468 48.9135 -0.58042 47.7821 0.0906774C47.454 0.285334 46.1705 0.823908 44.9298 1.28728C39.8668 3.17837 38.2031 5.03827 37.5311 9.55917C37.5283 9.57853 37.5254 9.59764 37.5226 9.61651C35.5831 11.33 33.1658 13.5869 31.6614 15.0343C31.7229 14.9479 31.7827 14.8619 31.8407 14.7766C33.7083 12.0283 34.6168 9.54955 35.4253 4.99608L36 1.75982L35.3089 2.28762C34.9286 2.57812 33.761 3.65412 32.7141 4.67899C28.6333 8.6737 26.5205 13.7238 27.2261 17.7958C27.3418 18.4646 27.4993 19.0119 27.5757 19.0119C27.6878 19.0119 27.8514 18.941 28.0523 18.8137C22.5397 25.1587 17.9743 33.2189 14.7263 42.4516C15.2453 40.4426 15.5516 38.0637 15.5541 35.7418C15.557 32.924 15.3269 31.1505 14.4684 27.3784L13.3791 22.5913L12.461 26.52C9.99389 37.0774 9.91314 40.4069 11.9999 45.5304L12.66 47.1507L13.3781 45.9413C13.5628 45.6303 13.7388 45.281 13.9049 44.8994C12.6339 48.8764 11.6027 53.0534 10.8392 57.3898C10.8152 56.5256 10.7362 55.698 10.6032 54.8838C10.1388 52.0414 8.86648 47.6329 8.20372 46.5692C7.95832 46.1754 7.26272 44.6619 6.65799 43.206C5.58905 40.6325 5.55822 40.6 5.5505 42.0389C5.54612 42.8531 5.42976 45.8452 5.29189 48.6882C4.88705 57.0372 5.91422 62.0707 8.48632 64.3427C9.20523 64.9778 9.55686 65.2628 9.78768 65.0714C9.45183 68.477 9.27792 71.9601 9.27792 75.5032C9.27792 75.8925 9.28002 76.2811 9.2842 76.669C8.46294 73.5228 5.2323 66.6192 3.93204 65.3153C3.49884 64.8808 2.62116 63.8951 1.98164 63.1247C1.0895 62.0503 0.872627 61.9307 1.04982 62.6109C1.17684 63.0984 1.49891 65.409 1.76554 67.7458C2.71359 76.0542 4.37734 80.8041 7.32404 83.6153C8.29425 84.5407 9.28539 85.298 9.52656 85.298C9.59673 85.298 9.65834 85.2411 9.71154 85.1355C10.0703 89.0882 10.6467 92.9394 11.4223 96.6618C10.3984 94.3131 9.1252 92.2408 7.93378 91.1932C7.31218 90.6466 5.95602 89.3466 4.92008 88.3038C3.88414 87.2613 2.35333 85.8393 1.51828 85.1439L0 83.8795L1.92081 89.4968C2.97725 92.5863 4.35081 96.2249 4.97316 97.5827C6.35291 100.593 8.66658 103.225 10.9768 104.414C12.9076 105.407 13.434 105.625 13.4714 104.727C14.7693 109.027 16.3446 113.104 18.1638 116.908C17.4464 115.822 16.7088 114.838 16.1035 114.203C14.0762 112.075 10.4728 109.69 8.39235 109.097C7.39631 108.814 6.03462 108.279 5.36638 107.91C3.65622 106.964 3.59188 107.044 4.68344 108.755C5.21565 109.589 6.29267 111.51 7.07684 113.022C8.53309 115.831 11.8475 119.989 13.792 121.445C14.3878 121.891 15.7644 122.542 16.8512 122.89C17.9379 123.238 19.1171 123.433 19.4716 123.322C19.8261 123.212 20.3736 123.119 20.6883 123.116C21.1601 123.11 21.215 123.023 20.9044 122.117C28.5357 135.327 39.3485 144.4 51.5834 146.731C50.3701 147.071 49.1286 147.544 48.1523 148.08ZM23.8708 145.782C24.6415 146.094 26.7224 146.986 28.4948 147.765C34.0772 150.218 40.1012 149.507 42.8152 146.075L43.8512 144.764L43.0215 144.217C39.9177 142.168 35.1195 141.766 30.3292 143.152C28.6112 143.649 26.1401 144.316 24.8376 144.635L22.4695 145.215L23.8708 145.782ZM14.7945 131.72C18.3461 135.277 19.3067 135.968 23.0163 137.636C25.2344 138.633 28.5752 138.498 30.4975 137.335L31.6542 136.635L30.3968 135.035C29.7052 134.156 28.1966 132.771 27.0446 131.958C25.8926 131.145 24.7216 130.313 24.4424 130.109C23.4245 129.366 11.8041 127.531 11.3172 128.037C11.2633 128.093 12.8281 129.75 14.7945 131.72ZM13.1899 87.0309C12.341 91.0121 12.3516 95.2581 13.2189 98.6158C13.8839 101.191 13.9049 101.219 14.5422 100.384C15.33 99.3518 16.3043 96.655 16.9369 93.7558C17.3076 92.0567 17.9515 81.1618 18.0024 75.7286C18.0178 74.0757 13.8803 83.793 13.1899 87.0309ZM11.0701 74.0482C10.7149 76.0787 10.6164 77.8364 10.7628 79.5333C10.8813 80.9066 11.0844 82.0303 11.2141 82.0303C11.5043 82.0303 14.4542 76.3422 15.3441 74.0666C15.9234 72.5854 16.9041 68.5426 18.4729 61.1699C18.7563 59.838 18.9882 58.641 18.9882 58.5101C18.9882 58.3791 17.681 60.084 16.0834 62.2989C12.9478 66.646 11.9602 68.9603 11.0701 74.0482ZM18.804 19.317C17.8829 21.9936 17.5969 25.9099 18.0845 29.165C18.2479 30.2561 18.5275 31.1487 18.7059 31.1487C18.8844 31.1487 19.7979 30.0459 20.7358 28.6982C23.3567 24.9325 24.4878 19.3753 23.9937 12.6923L23.7684 9.64561L21.7001 13.2785C20.5625 15.2765 19.2592 17.9939 18.804 19.317Z" fill="#42A5F5"/>
</svg>
