<svg width="73" height="165" viewBox="0 0 73 165" fill="none" xmlns="http://www.w3.org/2000/svg">
<path opacity="0.5" fill-rule="evenodd" clip-rule="evenodd" d="M22.452 155.724C24.1897 156.693 33.8918 163.64 33.8921 163.916C33.8926 164.201 27.4559 163.704 25.4033 163.261C22.4896 162.632 18.6834 160.773 17.1278 159.218C16.483 158.574 15.4438 157.167 14.8184 156.092L14.1213 154.894C13.5758 154.921 13.0282 154.934 12.4785 154.934C5.83901 155.724 3.6698 156.478 2.08461 158.994L0.999999 158.155C2.41833 154.934 6.08931 152.552 12.5581 152.887C13.5768 152.779 14.5917 152.671 15.5942 152.552L15.3138 152.557L15.8259 150.755C17.0347 146.499 18.9632 144.231 23.1567 142.133C24.4175 141.502 26.0935 140.503 26.8812 139.911L28.3134 138.837L28.0843 139.966C27.3711 143.482 23.7856 149.689 21.5458 151.564C22.6868 151.293 23.7808 150.966 24.811 150.558C25.9961 150.111 27.167 149.59 28.3211 149C28.2716 148.659 28.2799 148.178 28.3289 147.538C28.6157 143.795 29.5557 141.79 34.1643 135.09L38.6303 128.596L38.4249 130.7C38.3121 131.857 37.8449 134.578 37.3867 136.746C36.6332 140.313 35.5139 143.213 34.0518 145.407C36.319 143.712 38.4957 141.744 40.5599 139.535L40.3896 138.516C39.7538 134.71 41.0477 127.952 43.3667 122.964C43.8443 121.938 44.7802 119.561 45.4467 117.683L46.6584 114.269L46.7634 120.61C46.8223 124.162 46.7026 128.075 46.4916 129.508C46.2812 130.935 45.7461 132.576 45.0184 134.153C47.1346 131.282 49.0873 128.137 50.8452 124.764C50.6588 124.956 50.5173 125.041 50.4525 124.982C49.882 124.463 49.1455 119.667 49.1497 116.497C49.1523 114.49 49.5854 110.743 50.3089 106.465C50.9441 102.709 51.4771 98.9782 51.4931 98.1734C51.5221 96.7301 51.5311 96.7377 52.1607 98.7508C52.9089 101.143 54.1193 109.402 54.1193 112.114C54.1193 113.15 53.8726 115.65 53.5709 117.67C53.4407 118.541 53.3109 119.274 53.1675 119.915C54.5402 116.788 55.7527 113.504 56.784 110.091C61.1184 96.1142 62.1616 80.033 60.0881 64.9545C60.0881 64.9625 60.0881 64.9705 60.0881 64.9784C60.0881 66.5435 60.0131 66.5361 58.3241 64.8055C56.2036 62.6324 54.0352 59.1117 51.8393 54.2758C50.7431 51.8615 49.3754 49.0631 48.8004 48.0572C48.2253 47.051 47.8348 46.2281 47.9326 46.2281C48.5852 46.2281 54.399 51.1006 55.5966 52.6513C57.1998 54.727 58.4226 57.0688 59.1845 59.4557C58.4055 55.3932 57.3927 51.4352 56.1499 47.6462C56.081 47.6756 55.9924 47.6874 55.8826 47.6865C54.3363 47.6743 48.9192 42.871 46.1432 39.0504C45.4949 38.1585 44.1743 36.5551 43.2084 35.4876C41.2499 33.3229 41.4822 33.1458 44.7789 34.289C48.3438 35.5252 51.5493 38.0209 53.7053 41.0358C52.3921 37.8742 50.9074 34.8813 49.2765 32.0788L48.4345 32.0747C45.6863 32.0616 42.6017 30.9006 39.6949 28.7853C38.2359 27.7235 36.3251 26.4603 35.4488 25.9783C33.3133 24.8034 33.9602 24.2963 37.6061 24.2867C41.2112 24.2773 43.6824 24.956 45.8109 26.7116C44.2339 24.507 42.5592 22.4571 40.8035 20.5759C40.7896 20.6231 40.7687 20.6675 40.7406 20.7088C40.6255 20.8781 39.9701 21.1769 39.2841 21.3726C37.2757 21.9454 34.9662 21.8697 31.0735 21.1033C29.0673 20.7085 26.8664 20.3834 26.1824 20.3813C25.4984 20.3791 24.9389 20.203 24.9389 19.9901C24.9389 19.7771 26.2446 18.9616 27.8403 18.1777C31.4905 16.385 35.4033 16.2027 38.0553 17.6706C36.0539 15.5068 34.5027 13.799 33.3294 12.4759C33.1995 12.5623 32.9836 12.5733 32.6521 12.5733C30.1861 12.5733 28.2431 11.1398 25.7616 7.48973C23.1785 3.69021 21.6688 0.393535 22.833 1.09475C23.1705 1.29814 24.4912 1.86088 25.7679 2.34504C30.9777 4.32099 32.6895 6.26435 33.381 10.9881C33.384 11.0083 33.3869 11.0283 33.3897 11.048C35.3855 12.8384 37.8728 15.1966 39.4209 16.7089C39.3576 16.6186 39.296 16.5288 39.2364 16.4397C37.3146 13.568 36.3799 10.9781 35.5479 6.22027L34.9565 2.83879L35.6677 3.39027C36.059 3.6938 37.2604 4.81809 38.3377 5.88895C42.5368 10.0629 44.7108 15.3396 43.9848 19.5943C43.8656 20.2931 43.7036 20.865 43.625 20.865C43.5097 20.865 43.3413 20.791 43.1346 20.6579C48.807 27.2877 53.5047 35.7095 56.8469 45.3565C56.3128 43.2573 55.9976 40.7716 55.995 38.3456C55.992 35.4014 56.2288 33.5483 57.1122 29.607L58.2331 24.6051L59.1778 28.71C61.7164 39.7411 61.7995 43.2201 59.6522 48.5734L58.9731 50.2664L58.2341 49.0027C58.0441 48.6778 57.863 48.3129 57.6921 47.9141C58.9999 52.0696 60.061 56.434 60.8467 60.965C60.8713 60.062 60.9526 59.1973 61.0895 58.3465C61.5674 55.3766 62.8765 50.7702 63.5585 49.6589C63.811 49.2473 64.5268 47.6659 65.149 46.1447C66.2489 43.4558 66.2807 43.4218 66.2886 44.9253C66.2931 45.776 66.4129 48.9023 66.5547 51.873C66.9713 60.5965 65.9144 65.856 63.2677 68.2298C62.5279 68.8934 62.1661 69.1912 61.9286 68.9913C62.2742 72.5497 62.4532 76.1891 62.4532 79.8912C62.4532 80.298 62.451 80.704 62.4467 81.1093C63.2918 77.8219 66.616 70.6085 67.954 69.2461C68.3997 68.7921 69.3029 67.7622 69.9609 66.9573C70.8789 65.8346 71.1021 65.7096 70.9197 66.4204C70.789 66.9297 70.4576 69.3441 70.1833 71.7857C69.2078 80.4669 67.4958 85.43 64.4637 88.3673C63.4653 89.3342 62.4455 90.1255 62.1973 90.1255C62.1251 90.1255 62.0617 90.0661 62.007 89.9557C61.6378 94.0858 61.0447 98.1098 60.2466 101.999C61.3002 99.5451 62.6103 97.3798 63.8363 96.2852C64.4759 95.7141 65.8713 94.3557 66.9373 93.2662C68.0033 92.1769 69.5785 90.6911 70.4377 89.9645L72 88.6433L70.0235 94.5126C68.9365 97.7408 67.5231 101.543 66.8827 102.961C65.4629 106.107 63.0822 108.857 60.705 110.099C58.7182 111.137 58.1766 111.364 58.1381 110.426C56.8026 114.919 55.1816 119.179 53.3097 123.154C54.0479 122.019 54.8069 120.991 55.4297 120.327C57.5158 118.104 61.2237 115.611 63.3644 114.993C64.3893 114.696 65.7905 114.138 66.4781 113.752C68.2378 112.764 68.304 112.847 67.1808 114.635C66.6332 115.507 65.5249 117.513 64.718 119.094C63.2196 122.029 59.8091 126.373 57.8083 127.895C57.1951 128.361 55.7786 129.04 54.6603 129.404C53.5422 129.768 52.3287 129.971 51.964 129.856C51.5992 129.741 51.0359 129.644 50.712 129.64C50.2266 129.634 50.17 129.543 50.4897 128.597C42.6372 142.4 31.5109 151.879 18.9214 154.315C20.1699 154.67 21.4474 155.164 22.452 155.724ZM47.4373 153.324C46.6442 153.649 44.5031 154.582 42.6793 155.396C36.935 157.959 30.7364 157.216 27.9438 153.63L26.8777 152.26L27.7315 151.688C30.9253 149.548 35.8626 149.127 40.7917 150.575C42.5594 151.095 45.1023 151.792 46.4425 152.125L48.8792 152.731L47.4373 153.324ZM56.7766 138.63C53.1222 142.347 52.1337 143.069 48.3165 144.812C46.0342 145.853 42.5965 145.713 40.6185 144.497L39.4283 143.766L40.7221 142.095C41.4338 141.175 42.9861 139.728 44.1715 138.879C45.3569 138.03 46.5618 137.16 46.8491 136.947C47.8965 136.171 59.8538 134.254 60.3548 134.782C60.4102 134.841 58.8001 136.573 56.7766 138.63ZM58.4278 91.9361C59.3013 96.0959 59.2904 100.532 58.398 104.041C57.7136 106.731 57.692 106.76 57.0363 105.888C56.2257 104.81 55.2231 101.992 54.5722 98.9628C54.1908 97.1874 53.5282 85.8037 53.4758 80.1267C53.4599 78.3997 57.7174 88.553 58.4278 91.9361ZM60.609 78.3709C60.9745 80.4925 61.0758 82.329 60.9252 84.1021C60.8033 85.5371 60.5944 86.7112 60.4609 86.7112C60.1623 86.7112 57.1269 80.7678 56.2111 78.3901C55.6151 76.8425 54.6059 72.6182 52.9917 64.9147C52.7 63.5231 52.4614 62.2723 52.4614 62.1355C52.4614 61.9987 53.8065 63.7801 55.4504 66.0943C58.6769 70.6365 59.6931 73.0547 60.609 78.3709ZM52.651 21.1838C53.5987 23.9805 53.8931 28.0725 53.3913 31.4737C53.2231 32.6138 52.9355 33.5464 52.7519 33.5464C52.5682 33.5464 51.6283 32.3941 50.6631 30.9859C47.9663 27.0513 46.8024 21.2447 47.3109 14.2618L47.5426 11.0784L49.671 14.8744C50.8415 16.9619 52.1826 19.8013 52.651 21.1838Z" stroke="#9AA19A" stroke-linecap="round" stroke-linejoin="round"/>
</svg>
